<svg width="1920" height="1080" viewBox="0 0 1920 1080" fill="none" xmlns="http://www.w3.org/2000/svg">
  <g clip-path="url(#clip0_428_10907)">
    <g opacity="0.17" clip-path="url(#clip1_428_10907)">
      <g opacity="0.9">
        <path d="M-615.2 1114.83C-660.706 907.824 -111.671 653.382 611.103 546.516C1333.88 439.65 1956.69 520.828 2002.2 727.833C2047.7 934.838 1498.67 1189.28 775.892 1296.15C53.1179 1403.01 -569.695 1321.83 -615.2 1114.83Z" stroke="#6FC7BA" stroke-width="0.8" stroke-miterlimit="10"/>
        <path d="M-571.33 1066.17C-601.685 862.341 -51.745 627.975 656.996 542.696C1365.74 457.418 1964.89 553.521 1995.25 757.348C2025.6 961.176 1475.66 1195.54 766.922 1280.82C58.1808 1366.1 -540.975 1270 -571.33 1066.17Z" stroke="#6FC7BA" stroke-width="0.8" stroke-miterlimit="10"/>
        <path d="M757.464 1265.79C62.8735 1329.47 -512.54 1218.42 -527.757 1017.74C-542.975 817.066 7.76563 602.757 702.356 539.071C1396.95 475.385 1972.36 586.438 1987.58 787.115C2002.79 987.792 1452.05 1202.1 757.464 1265.79Z" stroke="#6FC7BA" stroke-width="0.8" stroke-miterlimit="10"/>
        <path d="M748.335 1250.56C67.8191 1292.65 -483.908 1166.65 -483.982 969.123C-484.055 771.596 67.5523 577.344 748.069 535.25C1428.58 493.155 1980.31 619.158 1980.39 816.684C1980.46 1014.21 1428.85 1208.46 748.335 1250.56Z" stroke="#6FC7BA" stroke-width="0.8" stroke-miterlimit="10"/>
        <path d="M739.359 1235.37C72.8413 1255.91 -455.282 1115.01 -440.237 920.663C-425.193 726.317 127.323 552.12 793.841 531.583C1460.36 511.046 1988.48 651.945 1973.44 846.291C1958.39 1040.64 1405.88 1214.83 739.359 1235.37Z" stroke="#6FC7BA" stroke-width="0.8" stroke-miterlimit="10"/>
        <path d="M730.541 1220.3C78.1396 1219.26 -426.267 1063.38 -396.082 872.151C-365.898 680.919 187.448 526.742 839.849 527.788C1492.25 528.834 1996.66 684.707 1966.47 875.939C1936.29 1067.17 1382.94 1221.35 730.541 1220.3Z" stroke="#6FC7BA" stroke-width="0.8" stroke-miterlimit="10"/>
        <path d="M721.327 1205.06C82.9634 1182.41 -397.789 1011.62 -352.464 823.584C-307.14 635.55 247.099 501.479 885.462 524.128C1523.83 546.778 2004.58 717.571 1959.25 905.605C1913.93 1093.64 1359.69 1227.71 721.327 1205.06Z" stroke="#6FC7BA" stroke-width="0.8" stroke-miterlimit="10"/>
        <path d="M712.327 1189.95C88.0893 1145.73 -368.943 959.984 -308.483 775.069C-248.024 590.154 307.032 476.097 931.269 520.314C1555.51 564.531 2012.54 750.279 1952.08 935.194C1891.62 1120.11 1336.56 1234.17 712.327 1189.95Z" stroke="#6FC7BA" stroke-width="0.8" stroke-miterlimit="10"/>
        <path d="M703.094 1174.61C92.9826 1108.75 -340.303 908.043 -264.677 726.319C-189.05 544.595 366.85 450.669 976.962 516.529C1587.07 582.39 2020.36 783.096 1944.73 964.821C1869.11 1146.54 1313.21 1240.47 703.094 1174.61Z" stroke="#6FC7BA" stroke-width="0.8" stroke-miterlimit="10"/>
        <path d="M693.967 1159.49C97.8837 1072.05 -311.768 856.409 -221.015 677.83C-130.263 499.25 426.527 425.363 1022.61 512.796C1618.69 600.23 2028.34 815.876 1937.59 994.456C1846.84 1173.03 1290.05 1246.92 693.967 1159.49Z" stroke="#6FC7BA" stroke-width="0.8" stroke-miterlimit="10"/>
        <path d="M684.912 1144.45C102.911 1035.46 -283.053 804.859 -177.162 629.394C-71.2721 453.929 486.374 400.04 1068.37 509.03C1650.38 618.02 2036.34 848.616 1930.45 1024.08C1824.56 1199.55 1266.91 1253.44 684.912 1144.45Z" stroke="#6FC7BA" stroke-width="0.8" stroke-miterlimit="10"/>
        <path d="M675.706 1129.15C107.814 998.543 -254.421 752.981 -133.368 580.676C-12.315 408.37 546.186 374.569 1114.08 505.178C1681.97 635.788 2044.21 881.35 1923.15 1053.66C1802.1 1225.96 1243.6 1259.76 675.706 1129.15Z" stroke="#6FC7BA" stroke-width="0.8" stroke-miterlimit="10"/>
        <path d="M666.734 1113.99C112.897 961.818 -225.71 701.359 -89.5654 532.238C46.5793 363.118 605.92 349.377 1159.76 501.549C1713.59 653.721 2052.2 914.18 1916.06 1083.3C1779.91 1252.42 1220.57 1266.16 666.734 1113.99Z" stroke="#6FC7BA" stroke-width="0.8" stroke-miterlimit="10"/>
        <path d="M657.492 1098.68C117.744 924.864 -197.15 649.428 -45.8435 483.478C105.463 317.528 665.672 323.906 1205.42 497.722C1745.17 671.539 2060.06 946.975 1908.76 1112.92C1757.45 1278.87 1197.24 1272.5 657.492 1098.68Z" stroke="#6FC7BA" stroke-width="0.8" stroke-miterlimit="10"/>
        <path d="M648.598 1083.36C122.918 887.955 -168.284 597.554 -1.81962 434.728C164.645 271.901 725.739 298.308 1251.42 493.708C1777.1 689.109 2068.3 979.51 1901.84 1142.34C1735.37 1305.16 1174.28 1278.76 648.598 1083.36Z" stroke="#6FC7BA" stroke-width="0.8" stroke-miterlimit="10"/>
        <path d="M639.739 1068.26C128.097 851.274 -139.487 545.949 42.0731 386.302C223.633 226.654 785.584 273.14 1297.23 490.13C1808.87 707.121 2076.45 1012.45 1894.89 1172.09C1713.33 1331.74 1151.38 1285.25 639.739 1068.26Z" stroke="#6FC7BA" stroke-width="0.8" stroke-miterlimit="10"/>
        <path d="M630.626 1053.03C133.131 814.456 -110.724 494.205 85.9627 337.73C282.649 181.256 845.395 247.811 1342.89 486.386C1840.39 724.96 2084.24 1045.21 1887.55 1201.69C1690.87 1358.16 1128.12 1291.61 630.626 1053.03Z" stroke="#6FC7BA" stroke-width="0.8" stroke-miterlimit="10"/>
        <path d="M621.495 1037.87C138.062 777.693 -82.1045 442.475 129.738 289.136C341.581 135.796 905.213 222.401 1388.65 482.574C1872.08 742.746 2092.24 1077.96 1880.4 1231.3C1668.56 1384.64 1104.93 1298.04 621.495 1037.87Z" stroke="#6FC7BA" stroke-width="0.8" stroke-miterlimit="10"/>
        <path d="M612.516 1022.64C143.14 740.891 -53.4047 390.757 173.521 240.591C400.447 90.4247 964.911 197.092 1434.29 478.839C1903.66 760.586 2100.21 1110.72 1873.28 1260.89C1646.36 1411.05 1081.89 1304.39 612.516 1022.64Z" stroke="#6FC7BA" stroke-width="0.8" stroke-miterlimit="10"/>
        <path d="M603.428 1007.36C148.161 704.022 -24.677 338.945 217.384 191.936C459.444 44.9275 1024.74 171.657 1480.01 474.994C1935.28 778.331 2108.11 1143.41 1866.05 1290.42C1623.99 1437.43 1058.7 1310.7 603.428 1007.36Z" stroke="#6FC7BA" stroke-width="0.8" stroke-miterlimit="10"/>
        <path d="M594.339 992.164C153.184 667.253 4.05099 287.244 261.242 143.391C518.433 -0.462842 1084.55 146.313 1525.71 471.224C1966.87 796.135 2116 1176.14 1858.81 1320C1601.62 1463.85 1035.49 1317.07 594.339 992.164Z" stroke="#6FC7BA" stroke-width="0.8" stroke-miterlimit="10"/>
        <path d="M585.232 977.249C158.049 630.776 32.5134 235.81 304.841 95.0675C577.169 -45.6746 1144.23 121.103 1571.42 467.577C1998.6 814.05 2124.14 1209.02 1851.81 1349.76C1579.48 1490.5 1012.42 1323.72 585.232 977.249Z" stroke="#6FC7BA" stroke-width="0.8" stroke-miterlimit="10"/>
      </g>
    </g>
    <g filter="url(#filter0_f_428_10907)">
      <circle cx="960" cy="540" r="367" fill="#07090A"/>
    </g>
  </g>
  <defs>
    <filter id="filter0_f_428_10907" x="293" y="-127" width="1334" height="1334" filterUnits="userSpaceOnUse" color-interpolation-filters="sRGB">
      <feFlood flood-opacity="0" result="BackgroundImageFix"/>
      <feBlend mode="normal" in="SourceGraphic" in2="BackgroundImageFix" result="shape"/>
      <feGaussianBlur stdDeviation="150" result="effect1_foregroundBlur_428_10907"/>
    </filter>
    <clipPath id="clip0_428_10907">
      <rect width="1920" height="1080" fill="white"/>
    </clipPath>
    <clipPath id="clip1_428_10907">
      <rect width="1920" height="1080" fill="white" transform="matrix(-1 -8.74228e-08 -8.74228e-08 1 1920 0)"/>
    </clipPath>
  </defs>
</svg>
