<svg width="130" height="100" viewBox="0 0 130 100" fill="none" xmlns="http://www.w3.org/2000/svg">
<path opacity="0.4" d="M104.272 16.1618C104.519 16.8984 104.714 17.651 104.857 18.4143C104.933 18.7749 104.988 19.1295 105.046 19.486C105.103 19.8425 105.14 20.1929 105.173 20.5395C105.251 21.2368 105.284 21.9162 105.32 22.592C105.414 25.2957 105.194 27.9007 104.994 30.4692L104.926 31.3808L104.89 31.7755L104.89 32.1971C104.883 32.4742 104.913 32.756 104.928 33.0375C104.942 33.3189 104.994 33.6087 105.031 33.9054C105.067 34.2022 105.126 34.4848 105.196 34.7788C105.266 35.0727 105.335 35.3685 105.41 35.657C105.567 36.2287 105.751 36.8363 105.963 37.4205C106.778 39.7973 107.899 42.1173 108.718 44.7308C109.162 46.1147 109.382 47.5602 109.37 49.0133C109.351 49.7946 109.242 50.571 109.044 51.3271C108.941 51.7099 108.818 52.0869 108.674 52.4564C108.601 52.6412 108.532 52.8298 108.449 53.0089L108.189 53.5402C107.831 54.2321 107.412 54.8918 106.94 55.5119C106.708 55.8294 106.419 56.1325 106.147 56.4416C105.874 56.7506 105.559 56.9994 105.261 57.282C104.964 57.5645 104.644 57.7706 104.312 58.0245C104.154 58.1424 103.99 58.2523 103.821 58.3538L103.319 58.668L103.065 58.8223L102.807 58.956L102.286 59.2198C101.945 59.3975 101.593 59.5544 101.233 59.6897C99.8453 60.2426 98.3937 60.6179 96.9122 60.8068C95.4778 60.9817 94.0294 61.0115 92.5889 60.8957C91.1727 60.7701 89.7729 60.5014 88.4109 60.0936C88.0715 59.9905 87.736 59.88 87.4043 59.7697C87.0725 59.6594 86.7435 59.514 86.4158 59.3853C86.0882 59.2566 85.7665 59.1151 85.4488 58.9626C85.131 58.8101 84.8111 58.6705 84.5013 58.496C83.2624 57.845 82.0781 57.0951 80.9599 56.2535C79.856 55.4321 78.8199 54.5234 77.8615 53.5362C76.9175 52.5792 76.0663 51.5349 75.3191 50.4174C74.5815 49.3138 74.0099 48.1078 73.6226 46.8381C73.2483 45.5334 73.1778 44.1604 73.4165 42.8242C73.675 41.4795 74.1164 40.1766 74.7284 38.9516C75.9521 36.5082 77.423 34.1965 79.118 32.0529C79.9464 30.9855 80.8159 29.9727 81.7119 29.0068C81.8004 28.9149 81.881 28.8156 81.9526 28.7099L82.1366 28.4595C82.2451 28.2701 82.3766 28.12 82.4759 27.9248L82.6365 27.6535C82.6852 27.5567 82.7304 27.4562 82.7845 27.3652C82.8946 27.185 82.9762 26.9597 83.081 26.7702C83.5004 25.842 83.8617 24.8887 84.163 23.9159L84.688 22.2174L84.9668 21.3076L85.2893 20.3564C85.4946 19.7146 85.7601 19.0337 86.0406 18.3421C86.3539 17.6002 86.7142 16.879 87.1193 16.1829C87.5759 15.3976 88.1137 14.6623 88.724 13.9894C89.3891 13.2536 90.1517 12.6122 90.9905 12.083L91.3083 11.8786L91.6365 11.7004C91.8558 11.586 92.0771 11.466 92.3018 11.3572C92.7434 11.1594 93.1967 10.9891 93.6592 10.8471L94.3411 10.6504L95.0066 10.5124C95.4442 10.431 95.8857 10.3727 96.3294 10.3379C96.4426 10.3243 96.5297 10.3136 96.6612 10.3078C96.7926 10.3019 97.0091 10.2946 97.1886 10.2901C97.5542 10.2806 97.9199 10.3037 98.2813 10.3592C98.3697 10.3726 98.4637 10.3843 98.5557 10.4015L98.8387 10.468C99.026 10.5173 99.2078 10.5682 99.3931 10.623C99.7507 10.7482 100.098 10.9 100.433 11.0771C100.594 11.1701 100.748 11.2647 100.897 11.3573C100.976 11.4056 101.054 11.4575 101.121 11.5055L101.331 11.6663C101.464 11.7714 101.594 11.8821 101.724 11.9927C101.854 12.1033 101.951 12.2131 102.065 12.3251C102.178 12.4372 102.283 12.5545 102.387 12.6645L102.656 13.0006C102.74 13.1119 102.836 13.229 102.909 13.34L103.131 13.6841C103.607 14.463 103.989 15.2945 104.272 16.1618Z" fill="#2E5743"/>
<path opacity="0.4" d="M12.6755 40.1017C13.9079 37.7706 14.8244 35.2884 15.401 32.7195C16.0236 30.1593 16.4197 27.546 16.807 24.9032C17.0125 23.5833 17.1972 22.2456 17.4414 20.908C17.6696 19.5322 17.9779 18.1706 18.3648 16.8301C18.7754 15.3851 19.3657 13.9965 20.1223 12.6961C20.9975 11.2134 22.199 9.94568 23.6371 8.98725C24.0214 8.73626 24.4354 8.5266 24.8286 8.30219C25.2218 8.07777 25.6805 7.93603 26.1154 7.76772C26.5503 7.5994 27.009 7.50196 27.4439 7.38975C27.8788 7.27754 28.3375 7.22734 28.7813 7.15352C30.4923 6.92814 32.2272 6.95103 33.9315 7.22144C35.603 7.48542 37.2356 7.95151 38.7927 8.60929C40.2513 9.2343 41.6551 9.97801 42.9897 10.8328C45.4131 12.424 47.7168 14.1875 49.8824 16.1096L52.9326 18.7672C53.4301 19.2012 53.9335 19.6146 54.422 20.031L55.1637 20.6481L55.9054 21.2387C56.8692 22.0039 57.8713 22.7203 58.9079 23.3855C59.8876 24.0203 60.9199 24.5716 61.9938 25.0332C63.1352 25.4951 64.3153 25.8567 65.5206 26.1139C66.7776 26.4092 68.0882 26.6277 69.4316 26.8226C72.1124 27.2153 74.9124 27.4634 77.7452 27.7882L79.8749 28.051C80.5928 28.1543 81.3047 28.2606 82.0256 28.3906C83.4884 28.6332 84.9303 28.9866 86.3387 29.4477C87.8121 29.9198 89.1999 30.6226 90.4493 31.5295C91.7123 32.4686 92.7431 33.6803 93.4638 35.0729C93.808 35.7454 94.0853 36.4495 94.2918 37.1754L94.5599 38.2472C94.6344 38.6016 94.682 38.9441 94.7446 39.2955C94.9547 40.6998 95.0354 42.12 94.9859 43.5388C94.914 44.9672 94.7025 46.3853 94.3544 47.7732C94.2591 48.1187 94.1876 48.473 94.0744 48.8126L93.7408 49.8373C93.4846 50.5076 93.2254 51.1808 92.9186 51.8305C91.6894 54.4494 90.0741 56.8727 88.1259 59.0207C87.1668 60.1048 86.1444 61.1322 85.0638 62.0976C83.9974 63.0809 82.8596 63.9756 81.7038 64.8467C81.1081 65.266 80.5362 65.706 79.9315 66.1017L79.0379 66.71L78.1235 67.3005C76.8942 68.0644 75.6392 68.7829 74.3584 69.4561C73.718 69.7898 73.0716 70.1117 72.4252 70.4365C71.7788 70.7613 71.1176 71.0507 70.4593 71.343C69.801 71.6354 69.1397 71.9336 68.4695 72.1964C67.7993 72.4592 67.135 72.7397 66.4559 72.9848L62.5836 74.4199C61.9521 74.6532 61.3325 74.9042 60.71 75.1463L59.7747 75.5125L58.8483 75.8934C53.9327 77.9067 49.1459 80.2163 44.5148 82.809C42.1884 84.1112 39.8829 85.4666 37.3808 86.8367C36.1328 87.5307 34.8102 88.2039 33.3626 88.8447C31.8288 89.5299 30.233 90.0697 28.5967 90.4569C26.8401 90.8632 25.038 91.0428 23.235 90.9914C21.5201 90.9392 19.8157 90.7066 18.1504 90.2975C17.3402 90.1233 16.5866 89.89 15.821 89.6685C15.4427 89.5504 15.0793 89.4205 14.71 89.2994C14.3406 89.1784 13.9772 89.0543 13.5959 88.8978L12.47 88.449L11.91 88.2187L11.353 87.95C10.5996 87.6036 9.86668 87.2152 9.15768 86.7865C8.80023 86.568 8.44279 86.3554 8.08833 86.128L7.0577 85.3751L6.55132 84.9941C6.38153 84.8642 6.22664 84.7136 6.06281 84.5719L5.10963 83.7096C4.81176 83.4144 4.51389 83.0718 4.23389 82.7559L3.80496 82.2716C3.66794 82.1062 3.54581 81.9291 3.41475 81.7548C3.16156 81.4064 2.90539 81.0609 2.66114 80.7095C2.41689 80.3581 2.22923 79.9713 2.02072 79.5993C1.23619 78.1416 0.678816 76.5745 0.367545 74.9514L0.245417 74.3609C0.212652 74.163 0.191802 73.9681 0.167973 73.7703C0.120314 73.3805 0.069675 72.9907 0.0369093 72.5891C-0.00669658 71.827 -0.0116682 71.0633 0.0220149 70.3007C0.0893429 68.8323 0.282664 67.3722 0.599883 65.9363C0.91128 64.5553 1.30112 63.1929 1.76753 61.8555C2.68709 59.2646 3.76846 56.733 5.00538 54.2754C5.30325 53.6701 5.60111 53.0559 5.92281 52.4594C6.24451 51.8629 6.51855 51.2546 6.85515 50.6611C7.19174 50.0676 7.49259 49.48 7.81429 48.8894L8.77641 47.1177L12.6755 40.1017ZM13.4679 40.5032C12.193 42.8419 11.0074 45.2278 9.95299 47.664L9.5598 48.5764L9.19044 49.4977C8.93725 50.1089 8.71385 50.732 8.48747 51.3521C8.02577 52.5893 7.62663 53.8473 7.25727 55.1081C6.52131 57.598 6.01484 60.1489 5.74409 62.7295C5.61247 63.9781 5.55577 65.2333 5.57431 66.4885C5.60095 67.6895 5.72547 68.8863 5.94664 70.0674C6.02707 70.658 6.20877 71.1924 6.33983 71.7417L6.6109 72.5301C6.65856 72.66 6.69728 72.7899 6.74494 72.9169L6.91472 73.289C7.3185 74.2441 7.85489 75.1386 8.50832 75.9466C8.67215 76.1414 8.83598 76.3304 8.9879 76.5371L9.52406 77.0686C9.61342 77.1572 9.69683 77.2517 9.78916 77.3344L10.087 77.5736C10.2866 77.7301 10.4713 77.8984 10.6828 78.0519L11.3232 78.489C11.4304 78.5628 11.5287 78.6425 11.6419 78.7075L11.9904 78.9053L12.6785 79.304L13.4202 79.6554C14.4481 80.1385 15.5104 80.5461 16.5985 80.8749C16.8665 80.9694 17.1674 81.0491 17.4653 81.1288C17.7631 81.2086 18.061 81.2971 18.3589 81.368C18.9397 81.495 19.5235 81.6485 20.0835 81.7342C21.1392 81.9391 22.213 82.038 23.2886 82.0295C24.2717 82.0148 25.2495 81.8849 26.2018 81.6426C28.129 81.1554 30.2796 80.116 32.6119 78.8788C33.7766 78.2675 34.9651 77.6179 36.1864 76.9594C37.4076 76.3009 38.6557 75.6601 39.9098 75.0164C44.9993 72.4436 50.2659 70.2303 55.67 68.3931L56.6649 68.0447L57.6807 67.7139C58.3568 67.4954 59.033 67.2681 59.7121 67.0614L63.6887 65.8595C64.9546 65.4727 66.2087 65.0623 67.4567 64.64L69.3125 63.9756C69.9261 63.7423 70.5397 63.512 71.1503 63.2728C72.3567 62.7767 73.575 62.2895 74.7486 61.7344L75.6422 61.3269L76.515 60.8987C77.1107 60.6211 77.6618 60.3081 78.2366 60.0129C80.4915 58.801 82.6223 57.3749 84.5991 55.7548C85.5641 54.9497 86.4708 54.0784 87.3127 53.1474C88.1508 52.2354 88.8998 51.2467 89.5497 50.1946C90.8653 48.1067 91.6984 45.7561 91.9893 43.3114C92.1188 42.0811 92.1128 40.8405 91.9714 39.6115C91.9267 39.3162 91.8969 38.9914 91.8433 38.6902L91.6587 37.8043C91.5045 37.2409 91.297 36.6932 91.0391 36.1684C90.5254 35.13 89.7598 34.2341 88.811 33.561C87.7981 32.8645 86.6685 32.3517 85.4749 32.0462C84.206 31.7167 82.9102 31.4993 81.6026 31.3966C80.2741 31.2873 78.9217 31.2489 77.5515 31.2608C74.8171 31.2755 72.029 31.4438 69.1546 31.5029C67.7129 31.5236 66.2474 31.5029 64.7402 31.4143C63.1762 31.3273 61.6226 31.108 60.0964 30.7588C56.8466 29.9704 54.0466 28.5264 51.5118 26.92C46.4778 23.6896 42.5131 19.8331 38.4859 16.9954C36.4813 15.581 34.4975 14.453 32.4541 13.8329C31.4269 13.5207 30.364 13.3381 29.2907 13.2896C28.3156 13.2039 27.3338 13.3463 26.4243 13.7053C25.5148 14.0643 24.703 14.6299 24.0541 15.3566C23.2447 16.2259 22.551 17.1945 21.9899 18.2386C21.3811 19.3556 20.8371 20.5061 20.3606 21.6846C19.881 22.8982 19.4252 24.1414 19.0112 25.3993C18.1593 27.9152 17.4117 30.4871 16.5568 33.0295C15.7464 35.6035 14.715 38.1039 13.4738 40.5032H13.4679Z" fill="#2E5743"/>
<path d="M18.1064 51.8965L94.5406 38.5428L99.6246 67.6428C99.7745 68.5004 99.5775 69.3823 99.0771 70.0946C98.5766 70.8069 97.8137 71.2912 96.9562 71.4411L26.9887 83.6649C26.1311 83.8148 25.2492 83.6178 24.5369 83.1174C23.8246 82.6169 23.3403 81.854 23.1904 80.9965L18.1064 51.8965Z" fill="#263238" stroke="#3B6675" stroke-miterlimit="10"/>
<path d="M94.1883 38.5958L18.4736 51.8237L19.5684 58.09L95.2831 44.8621L94.1883 38.5958Z" fill="#3B6675"/>
<path d="M49.4907 46.4116L63.1527 44.0248L66.1092 60.9474C66.1983 61.4571 66.0812 61.9813 65.7837 62.4046C65.4863 62.828 65.0329 63.1159 64.5232 63.2049L54.7048 64.9203C54.1951 65.0093 53.6709 64.8923 53.2475 64.5948C52.8242 64.2974 52.5363 63.8439 52.4472 63.3343L49.4907 46.4116Z" fill="#263238" stroke="#3B6675" stroke-miterlimit="10"/>
<path d="M24.9057 33.6624L81.9673 23.6933C84.5374 23.2443 87.1807 23.8346 89.3156 25.3345C91.4506 26.8344 92.9022 29.1209 93.3512 31.6911L94.5478 38.5403L18.1045 51.8956L16.9079 45.0464C16.4589 42.4762 17.0492 39.8329 18.5491 37.698C20.049 35.5631 22.3356 34.1114 24.9057 33.6624Z" fill="#263238" stroke="#3B6675" stroke-miterlimit="10"/>
<path d="M60.3803 51.3698C60.4735 51.9164 60.4161 52.4781 60.2141 52.9945C60.0121 53.5109 59.6732 53.9625 59.2338 54.3007L59.7978 57.546C59.8603 57.9065 59.7771 58.2771 59.5664 58.5762C59.3557 58.8753 59.0349 59.0784 58.6744 59.141C58.3139 59.2035 57.9434 59.1203 57.6443 58.9096C57.3452 58.6989 57.142 58.3781 57.0795 58.0176L56.5155 54.7723C56.0046 54.6131 55.5454 54.3208 55.1849 53.9255C54.8244 53.5301 54.5756 53.0459 54.4641 52.5226C54.3526 51.9993 54.3824 51.4558 54.5505 50.9478C54.7186 50.4398 55.0188 49.9857 55.4204 49.6322C55.822 49.2786 56.3104 49.0384 56.8356 48.936C57.3608 48.8337 57.9037 48.873 58.4087 49.0499C58.9136 49.2268 59.3624 49.5349 59.7089 49.9426C60.0554 50.3503 60.2871 50.8429 60.3803 51.3698Z" fill="#3B6675"/>
<path d="M56.6839 19.1198C57.1755 19.1198 57.5739 18.7214 57.5739 18.2298C57.5739 17.7383 57.1755 17.3398 56.6839 17.3398C56.1924 17.3398 55.7939 17.7383 55.7939 18.2298C55.7939 18.7214 56.1924 19.1198 56.6839 19.1198Z" fill="#6FC7BA"/>
<path d="M2.33385 28.1599C2.82538 28.1599 3.22385 27.7614 3.22385 27.2699C3.22385 26.7783 2.82538 26.3799 2.33385 26.3799C1.84231 26.3799 1.44385 26.7783 1.44385 27.2699C1.44385 27.7614 1.84231 28.1599 2.33385 28.1599Z" fill="#6FC7BA"/>
<path d="M6.60387 71.76C7.0954 71.76 7.49387 71.3615 7.49387 70.87C7.49387 70.3784 7.0954 69.98 6.60387 69.98C6.11233 69.98 5.71387 70.3784 5.71387 70.87C5.71387 71.3615 6.11233 71.76 6.60387 71.76Z" fill="#6FC7BA"/>
<path d="M35.7139 11V14.91" stroke="#6FC7BA" stroke-width="0.7" stroke-linecap="round" stroke-linejoin="round"/>
<path d="M33.7637 12.9502H37.6737" stroke="#6FC7BA" stroke-width="0.7" stroke-linecap="round" stroke-linejoin="round"/>
<path d="M51.0737 82.0298V85.9398" stroke="#6FC7BA" stroke-width="0.7" stroke-linecap="round" stroke-linejoin="round"/>
<path d="M49.1138 83.9902H53.0338" stroke="#6FC7BA" stroke-width="0.7" stroke-linecap="round" stroke-linejoin="round"/>
<path d="M111.494 11.3501V15.2601" stroke="#6FC7BA" stroke-width="0.7" stroke-linecap="round" stroke-linejoin="round"/>
<path d="M109.534 13.2998H113.454" stroke="#6FC7BA" stroke-width="0.7" stroke-linecap="round" stroke-linejoin="round"/>
<path d="M62.5 96.5C76.1645 96.5 88.5324 96.7234 97.4814 97.085C101.957 97.2658 105.571 97.4818 108.062 97.7197C109.016 97.8108 109.797 97.905 110.396 98C109.797 98.095 109.016 98.1892 108.062 98.2803C105.571 98.5182 101.957 98.7342 97.4814 98.915C88.5324 99.2766 76.1645 99.5 62.5 99.5C48.8355 99.5 36.4676 99.2766 27.5186 98.915C23.0426 98.7342 19.4287 98.5182 16.9375 98.2803C15.9834 98.1891 15.2021 98.0951 14.6035 98C15.2021 97.9049 15.9834 97.8109 16.9375 97.7197C19.4287 97.4818 23.0426 97.2658 27.5186 97.085C36.4676 96.7234 48.8355 96.5 62.5 96.5Z" fill="#14241C" stroke="#14241C"/>
<path d="M101.4 52.4998L102.542 52.4888C102.591 52.157 102.663 51.6273 102.747 50.9499C103.425 45.6617 105.309 32.6011 100.704 33.6745C96.7519 34.5953 98.2419 41.6628 98.1509 44.2936C98.1475 45.571 98.2991 46.8441 98.6024 48.085C99.0402 49.8381 99.8692 51.6755 101.4 52.4998Z" fill="#263238"/>
<path d="M99.4935 27.1088L109.719 24.1113C111.343 23.6331 113.087 23.7806 114.608 24.5246C116.129 25.2686 117.316 26.5552 117.936 28.1309L122.577 39.8175C123.199 41.3894 123.212 43.1367 122.613 44.7175C122.015 46.2983 120.848 47.599 119.341 48.3651L109.844 53.1898C109.003 53.6187 108.081 53.8671 107.139 53.9192C106.196 53.9712 105.252 53.8257 104.369 53.492C103.486 53.1583 102.682 52.6437 102.009 51.9813C101.336 51.3188 100.809 50.5231 100.462 49.6451L95.1125 36.1321C94.7622 35.2553 94.5989 34.3151 94.6328 33.3716C94.6668 32.428 94.8973 31.502 95.3097 30.6526C95.722 29.8033 96.3072 29.0494 97.0276 28.4392C97.748 27.8289 98.5879 27.3758 99.4935 27.1088ZM114.364 40.7357C115.123 40.435 115.776 39.9159 116.24 39.2441C116.704 38.5724 116.958 37.778 116.971 36.9617C116.983 36.1453 116.753 35.3436 116.31 34.658C115.867 33.9723 115.23 33.4335 114.481 33.1097C113.731 32.7859 112.903 32.6916 112.1 32.8389C111.296 32.9861 110.555 33.3682 109.969 33.9368C109.383 34.5055 108.979 35.2351 108.808 36.0334C108.637 36.8317 108.707 37.6629 109.008 38.4217C109.206 38.928 109.503 39.39 109.881 39.7813C110.258 40.1726 110.71 40.4854 111.209 40.7017C111.707 40.9181 112.244 41.0337 112.788 41.0419C113.332 41.0501 113.872 40.9508 114.377 40.7496L114.364 40.7357Z" fill="#5FD5CF"/>
<path d="M99.4935 27.1088L109.719 24.1113C111.343 23.6331 113.087 23.7806 114.608 24.5246C116.129 25.2686 117.316 26.5552 117.936 28.1309L122.577 39.8175C123.199 41.3894 123.212 43.1367 122.613 44.7175C122.015 46.2983 120.848 47.599 119.341 48.3651L109.844 53.1898C109.003 53.6187 108.081 53.8671 107.139 53.9192C106.196 53.9712 105.252 53.8257 104.369 53.492C103.486 53.1583 102.682 52.6437 102.009 51.9813C101.336 51.3188 100.809 50.5231 100.462 49.6451L95.1125 36.1321C94.7622 35.2553 94.5989 34.3151 94.6328 33.3716C94.6668 32.428 94.8973 31.502 95.3097 30.6526C95.722 29.8033 96.3072 29.0494 97.0276 28.4392C97.748 27.8289 98.5879 27.3758 99.4935 27.1088ZM114.364 40.7357C115.123 40.435 115.776 39.9159 116.24 39.2441C116.704 38.5724 116.958 37.778 116.971 36.9617C116.983 36.1453 116.753 35.3436 116.31 34.658C115.867 33.9723 115.23 33.4335 114.481 33.1097C113.731 32.7859 112.903 32.6916 112.1 32.8389C111.296 32.9861 110.555 33.3682 109.969 33.9368C109.383 34.5055 108.979 35.2351 108.808 36.0334C108.637 36.8317 108.707 37.6629 109.008 38.4217C109.206 38.928 109.503 39.39 109.881 39.7813C110.258 40.1726 110.71 40.4854 111.209 40.7017C111.707 40.9181 112.244 41.0337 112.788 41.0419C113.332 41.0501 113.872 40.9508 114.377 40.7496L114.364 40.7357Z" fill="#5FD5CF"/>
<path opacity="0.1" d="M100.461 49.6451L95.1121 36.1321C94.7618 35.2553 94.5984 34.315 94.6324 33.3715C94.6663 32.428 94.8968 31.5019 95.3092 30.6526C95.7216 29.8032 96.3067 29.0493 97.0272 28.4391C97.7476 27.8289 98.5875 27.3757 99.4931 27.1087L102.49 26.2659L104.497 25.6954L109.754 24.1562C111.368 23.6854 113.099 23.8314 114.611 24.566C116.123 25.3006 117.308 26.5712 117.936 28.1309L122.577 39.8174C123.198 41.3893 123.211 43.1366 122.613 44.7174C122.014 46.2983 120.847 47.599 119.341 48.365L109.84 53.193C109.088 53.575 108.271 53.8119 107.431 53.891C106.807 53.957 106.175 53.9318 105.558 53.8161C104.423 53.6131 103.359 53.1233 102.467 52.3932C101.575 51.6632 100.885 50.7172 100.461 49.6451ZM114.37 40.7426C115.128 40.4412 115.78 39.922 116.243 39.2506C116.706 38.5791 116.96 37.7855 116.972 36.9699C116.984 36.1544 116.755 35.3534 116.312 34.6682C115.87 33.983 115.234 33.4443 114.486 33.1201C113.737 32.7959 112.91 32.7007 112.107 32.8465C111.304 32.9924 110.563 33.3728 109.977 33.9396C109.39 34.5065 108.985 35.2344 108.812 36.0315C108.639 36.8286 108.706 37.6591 109.004 38.4181C109.202 38.9251 109.499 39.3879 109.877 39.7798C110.254 40.1718 110.706 40.4851 111.205 40.7018C111.705 40.9185 112.242 41.0343 112.786 41.0425C113.33 41.0507 113.871 40.9511 114.377 40.7496L114.37 40.7426Z" fill="white"/>
<path d="M100.047 27.8415L109.633 25.0307C111.153 24.5845 112.785 24.7223 114.209 25.4171C115.633 26.1119 116.746 27.3136 117.33 28.7865L121.67 39.7519C122.258 41.2263 122.274 42.8671 121.715 44.3526C121.155 45.8381 120.061 47.0611 118.647 47.7815L109.74 52.3033C108.951 52.7038 108.088 52.9354 107.205 52.9832C106.322 53.0311 105.439 52.8941 104.612 52.5812C103.785 52.2682 103.032 51.7861 102.402 51.1656C101.772 50.5452 101.278 49.8001 100.953 48.9779L95.9249 36.2979C95.5981 35.475 95.4466 34.593 95.48 33.7083C95.5134 32.8235 95.731 31.9554 96.119 31.1596C96.507 30.3637 97.0567 29.6576 97.7331 29.0862C98.4095 28.5149 99.1976 28.091 100.047 27.8415ZM116.694 35.3897C116.393 34.6311 115.874 33.9786 115.203 33.5149C114.531 33.0513 113.737 32.7971 112.921 32.7847C112.105 32.7722 111.303 33.002 110.618 33.445C109.932 33.888 109.393 34.5242 109.069 35.2734C108.745 36.0225 108.651 36.8509 108.798 37.6538C108.944 38.4567 109.326 39.198 109.894 39.7841C110.462 40.3701 111.191 40.7746 111.989 40.9464C112.787 41.1182 113.618 41.0496 114.377 40.7492C114.881 40.5501 115.342 40.2534 115.731 39.8761C116.121 39.4988 116.433 39.0483 116.648 38.5505C116.863 38.0526 116.978 37.5171 116.986 36.9747C116.994 36.4324 116.895 35.8937 116.694 35.3897Z" fill="#5FD5CF"/>
<path opacity="0.1" d="M100.047 27.8415L109.633 25.0307C111.153 24.5845 112.785 24.7223 114.209 25.4171C115.633 26.1119 116.746 27.3136 117.33 28.7865L121.67 39.7519C122.258 41.2263 122.274 42.8671 121.715 44.3526C121.155 45.8381 120.061 47.0611 118.647 47.7815L109.74 52.3033C108.951 52.7038 108.088 52.9354 107.205 52.9832C106.322 53.0311 105.439 52.8941 104.612 52.5812C103.785 52.2682 103.032 51.7861 102.402 51.1656C101.772 50.5452 101.278 49.8001 100.953 48.9779L95.9249 36.2979C95.5981 35.475 95.4466 34.593 95.48 33.7083C95.5134 32.8235 95.731 31.9554 96.119 31.1596C96.507 30.3637 97.0567 29.6576 97.7331 29.0862C98.4095 28.5149 99.1976 28.091 100.047 27.8415ZM116.694 35.3897C116.393 34.6311 115.874 33.9786 115.203 33.5149C114.531 33.0513 113.737 32.7971 112.921 32.7847C112.105 32.7722 111.303 33.002 110.618 33.445C109.932 33.888 109.393 34.5242 109.069 35.2734C108.745 36.0225 108.651 36.8509 108.798 37.6538C108.944 38.4567 109.326 39.198 109.894 39.7841C110.462 40.3701 111.191 40.7746 111.989 40.9464C112.787 41.1182 113.618 41.0496 114.377 40.7492C114.881 40.5501 115.342 40.2534 115.731 39.8761C116.121 39.4988 116.433 39.0483 116.648 38.5505C116.863 38.0526 116.978 37.5171 116.986 36.9747C116.994 36.4324 116.895 35.8937 116.694 35.3897Z" fill="#5FD5CF"/>
<path d="M64.7183 55L65.2415 55.163L65.5412 55.2609L66.3938 55.5397L67.6354 57.1354C67.6864 57.2043 67.7524 57.2607 67.8284 57.3004C67.9097 57.3443 67.9995 57.3702 68.0917 57.3763C68.1839 57.3824 68.2763 57.3685 68.3627 57.3357L72.1159 55.8455C72.2021 55.8118 72.2797 55.7591 72.3427 55.6913C72.4057 55.6235 72.4525 55.5423 72.4797 55.4539C72.5004 55.3981 72.5116 55.3393 72.5127 55.2799L72.5908 52.2445L75.6131 51.0455L76.0561 52.1623L79.0717 50.9631L79.8031 52.8005L82.0228 51.9208C82.1113 51.8853 82.1912 51.8316 82.2575 51.7631C82.3237 51.6945 82.3747 51.6128 82.4071 51.5232C82.4307 51.4634 82.4442 51.4001 82.4472 51.3359L82.5618 49.5817L85.5809 48.3793L86.3088 50.22L89.4847 48.9624L90.2158 50.8065C90.244 50.8784 90.2862 50.9441 90.3399 50.9997C90.3936 51.0552 90.4578 51.0996 90.5288 51.1302C90.5997 51.1609 90.676 51.1772 90.7533 51.1782C90.8306 51.1792 90.9073 51.1648 90.979 51.136L99.6704 47.688L95.8573 38.0611L64.4079 50.5366L64.232 51.0458L63.6279 52.7359C63.5453 52.9558 63.5081 53.1901 63.5185 53.4248C63.529 53.6595 63.587 53.8896 63.6889 54.1012C63.7908 54.3128 63.9346 54.5016 64.1115 54.6561C64.2885 54.8106 64.4949 54.9276 64.7183 55Z" fill="#5FD5CF"/>
<g opacity="0.1">
<path d="M64.7183 55L65.2415 55.163L65.5412 55.2609L66.3938 55.5397L67.6354 57.1354C67.6864 57.2043 67.7524 57.2607 67.8284 57.3004C67.9097 57.3443 67.9995 57.3702 68.0917 57.3763C68.1839 57.3824 68.2763 57.3685 68.3627 57.3357L72.1159 55.8455C72.2021 55.8118 72.2797 55.7591 72.3427 55.6913C72.4057 55.6235 72.4525 55.5423 72.4797 55.4539C72.5004 55.3981 72.5116 55.3393 72.5127 55.2799L72.5908 52.2445L75.6131 51.0455L76.0561 52.1623L79.0717 50.9631L79.8031 52.8005L82.0228 51.9208C82.1113 51.8853 82.1912 51.8316 82.2575 51.7631C82.3237 51.6945 82.3747 51.6128 82.4071 51.5232C82.4307 51.4634 82.4442 51.4001 82.4472 51.3359L82.5618 49.5817L85.5809 48.3793L86.3088 50.22L89.4847 48.9624L90.2158 50.8065C90.244 50.8784 90.2862 50.9441 90.3399 50.9997C90.3936 51.0552 90.4578 51.0996 90.5288 51.1302C90.5997 51.1609 90.676 51.1772 90.7533 51.1782C90.8306 51.1792 90.9073 51.1648 90.979 51.136L99.6704 47.688L95.8573 38.0611L64.4079 50.5366L64.232 51.0458L63.6279 52.7359C63.5453 52.9558 63.5081 53.1901 63.5185 53.4248C63.529 53.6595 63.587 53.8896 63.6889 54.1012C63.7908 54.3128 63.9346 54.5016 64.1115 54.6561C64.2885 54.8106 64.4949 54.9276 64.7183 55Z" fill="white"/>
</g>
<path d="M64.0684 54.1223L97.6932 40.7825L96.7213 38.3035L64.6641 51.0206L64.0532 52.7105C63.8221 53.3559 63.7661 53.8053 64.0684 54.1223Z" fill="#5FD5CF"/>
<path opacity="0.1" d="M64.0684 54.1223L97.6932 40.7825L96.7213 38.3035L64.6641 51.0206L64.0532 52.7105C63.8221 53.3559 63.7661 53.8053 64.0684 54.1223Z" fill="black"/>
<path d="M65.8082 55.0377L66.545 55.3528C66.5556 55.3602 66.5644 55.3697 66.571 55.3807L67.7928 56.9622C67.8323 57.0223 67.8817 57.0753 67.939 57.1188C67.9494 57.1254 67.9612 57.1294 67.9735 57.1304C67.9858 57.1314 67.9982 57.1295 68.0095 57.1246L72.097 55.5113C72.1084 55.5086 72.1189 55.503 72.1275 55.4951C72.136 55.4871 72.1424 55.477 72.1458 55.4658C72.1589 55.42 72.1651 55.3726 72.1641 55.325L72.2722 52.0077C72.2753 51.9936 72.2826 51.9807 72.2932 51.9709C72.3038 51.961 72.3171 51.9546 72.3313 51.9525L75.6576 50.6327C75.6767 50.6264 75.6975 50.6273 75.7159 50.6354C75.7343 50.6435 75.749 50.6582 75.7572 50.6766L76.1535 51.6805C76.1571 51.69 76.1625 51.6987 76.1695 51.706C76.1765 51.7134 76.1848 51.7193 76.1941 51.7234C76.2034 51.7275 76.2134 51.7297 76.2235 51.7298C76.2336 51.73 76.2437 51.7282 76.2531 51.7244L79.084 50.6065C79.0934 50.6027 79.1034 50.6009 79.1136 50.601C79.1237 50.6012 79.1337 50.6034 79.143 50.6075C79.1522 50.6116 79.1606 50.6175 79.1676 50.6248C79.1745 50.6322 79.1799 50.6408 79.1835 50.6503L79.8647 52.3782C79.8677 52.3881 79.8727 52.3973 79.8796 52.405C79.8864 52.4128 79.8949 52.4189 79.9044 52.4231C79.9138 52.4273 79.9241 52.4294 79.9344 52.4292C79.9448 52.429 79.9549 52.4266 79.9642 52.4221L82.0404 51.6047C82.0518 51.6021 82.0623 51.5965 82.0708 51.5885C82.0794 51.5805 82.0857 51.5704 82.0891 51.5592C82.1041 51.5115 82.1126 51.4619 82.1144 51.4119L82.2734 49.3493C82.2773 49.3365 82.2845 49.325 82.2942 49.3159C82.304 49.3068 82.316 49.3004 82.3291 49.2974L85.6277 47.9969C85.637 47.9924 85.6472 47.9899 85.6576 47.9898C85.6679 47.9896 85.6782 47.9916 85.6876 47.9958C85.6971 48 85.7055 48.0062 85.7124 48.0139C85.7192 48.0217 85.7243 48.0308 85.7273 48.0407L86.4273 49.8097C86.4302 49.8196 86.4353 49.8288 86.4421 49.8365C86.449 49.8443 86.4574 49.8504 86.4669 49.8546C86.4764 49.8588 86.4866 49.8609 86.4969 49.8607C86.5073 49.8605 86.5175 49.8581 86.5268 49.8535L99.189 44.8555C99.2067 44.8476 99.2208 44.8332 99.2283 44.8153C99.2358 44.7974 99.2362 44.7774 99.2294 44.7592L97.9973 41.5269C97.9891 41.5085 97.9744 41.4938 97.956 41.4857C97.9376 41.4776 97.9168 41.4766 97.8978 41.483L64.9004 54.5044C64.8863 54.5102 64.8743 54.5201 64.8659 54.5329C64.8575 54.5456 64.8531 54.5605 64.8533 54.5758C64.8535 54.591 64.8583 54.6059 64.867 54.6184C64.8757 54.6309 64.888 54.6405 64.9022 54.6459L65.8082 55.0377Z" fill="#5FD5CF"/>
<path opacity="0.1" d="M65.8082 55.0377L66.545 55.3528C66.5556 55.3602 66.5644 55.3697 66.571 55.3807L67.7928 56.9622C67.8323 57.0223 67.8817 57.0753 67.939 57.1188C67.9494 57.1254 67.9612 57.1294 67.9735 57.1304C67.9858 57.1314 67.9982 57.1295 68.0095 57.1246L72.097 55.5113C72.1084 55.5086 72.1189 55.503 72.1275 55.4951C72.136 55.4871 72.1424 55.477 72.1458 55.4658C72.1589 55.42 72.1651 55.3726 72.1641 55.325L72.2722 52.0077C72.2753 51.9936 72.2826 51.9807 72.2932 51.9709C72.3038 51.961 72.3171 51.9546 72.3313 51.9525L75.6576 50.6327C75.6767 50.6264 75.6975 50.6273 75.7159 50.6354C75.7343 50.6435 75.749 50.6582 75.7572 50.6766L76.1535 51.6805C76.1571 51.69 76.1625 51.6987 76.1695 51.706C76.1765 51.7134 76.1848 51.7193 76.1941 51.7234C76.2034 51.7275 76.2134 51.7297 76.2235 51.7298C76.2336 51.73 76.2437 51.7282 76.2531 51.7244L79.084 50.6065C79.0934 50.6027 79.1034 50.6009 79.1136 50.601C79.1237 50.6012 79.1337 50.6034 79.143 50.6075C79.1522 50.6116 79.1606 50.6175 79.1676 50.6248C79.1745 50.6322 79.1799 50.6408 79.1835 50.6503L79.8647 52.3782C79.8677 52.3881 79.8727 52.3973 79.8796 52.405C79.8864 52.4128 79.8949 52.4189 79.9044 52.4231C79.9138 52.4273 79.9241 52.4294 79.9344 52.4292C79.9448 52.429 79.9549 52.4266 79.9642 52.4221L82.0404 51.6047C82.0518 51.6021 82.0623 51.5965 82.0708 51.5885C82.0794 51.5805 82.0857 51.5704 82.0891 51.5592C82.1041 51.5115 82.1126 51.4619 82.1144 51.4119L82.2734 49.3493C82.2773 49.3365 82.2845 49.325 82.2942 49.3159C82.304 49.3068 82.316 49.3004 82.3291 49.2974L85.6277 47.9969C85.637 47.9924 85.6472 47.9899 85.6576 47.9898C85.6679 47.9896 85.6782 47.9916 85.6876 47.9958C85.6971 48 85.7055 48.0062 85.7124 48.0139C85.7192 48.0217 85.7243 48.0308 85.7273 48.0407L86.4273 49.8097C86.4302 49.8196 86.4353 49.8288 86.4421 49.8365C86.449 49.8443 86.4574 49.8504 86.4669 49.8546C86.4764 49.8588 86.4866 49.8609 86.4969 49.8607C86.5073 49.8605 86.5175 49.8581 86.5268 49.8535L99.189 44.8555C99.2067 44.8476 99.2208 44.8332 99.2283 44.8153C99.2358 44.7974 99.2362 44.7774 99.2294 44.7592L97.9973 41.5269C97.9891 41.5085 97.9744 41.4938 97.956 41.4857C97.9376 41.4776 97.9168 41.4766 97.8978 41.483L64.9004 54.5044C64.8863 54.5102 64.8743 54.5201 64.8659 54.5329C64.8575 54.5456 64.8531 54.5605 64.8533 54.5758C64.8535 54.591 64.8583 54.6059 64.867 54.6184C64.8757 54.6309 64.888 54.6405 64.9022 54.6459L65.8082 55.0377Z" fill="black"/>
<path opacity="0.3" d="M110.827 32.1591C111.779 31.7831 112.82 31.6975 113.82 31.9132C114.82 32.1289 115.734 32.6362 116.446 33.371C117.158 34.1058 117.636 35.0351 117.82 36.0415C118.004 37.0478 117.885 38.0861 117.479 39.0252C117.073 39.9642 116.398 40.7618 115.539 41.3172C114.679 41.8726 113.675 42.1609 112.652 42.1456C111.629 42.1303 110.634 41.8122 109.792 41.2314C108.949 40.6506 108.298 39.8331 107.92 38.8824C107.668 38.2503 107.543 37.5745 107.552 36.8938C107.562 36.2132 107.706 35.5411 107.976 34.9163C108.246 34.2915 108.637 33.7262 109.126 33.2531C109.616 32.7799 110.194 32.4081 110.827 32.1591ZM114.383 40.7565C115.142 40.4557 115.795 39.9367 116.259 39.2649C116.723 38.5931 116.977 37.7988 116.99 36.9824C117.002 36.1661 116.772 35.3644 116.329 34.6787C115.886 33.993 115.249 33.4542 114.5 33.1304C113.75 32.8066 112.922 32.7124 112.119 32.8596C111.316 33.0068 110.574 33.3889 109.988 33.9576C109.402 34.5262 108.998 35.2559 108.827 36.0542C108.656 36.8525 108.726 37.6836 109.027 38.4424C109.432 39.4564 110.223 40.2686 111.225 40.701C112.228 41.1334 113.361 41.1508 114.377 40.7495L114.383 40.7565Z" fill="white"/>
<path opacity="0.1" d="M105.552 53.8164C106.168 53.9332 106.798 53.9595 107.422 53.8946L104.472 25.6614C104.472 25.6614 102.852 26.1375 102.445 26.2043C102.461 26.2246 102.471 26.2479 102.477 26.2727C103.022 27.9319 105.106 49.8703 105.552 53.8164Z" fill="white"/>
<path opacity="0.1" d="M108.761 53.6203C108.871 53.5836 113.551 51.2935 113.551 51.2935L112.595 42.1259C111.41 42.0853 110.276 41.6392 109.38 40.8622C108.485 40.0853 107.884 39.0247 107.677 37.8576C107.47 36.6906 107.67 35.4879 108.244 34.4506C108.817 33.4133 109.729 32.6044 110.828 32.159C111.054 32.0651 111.289 31.992 111.529 31.9407L110.681 23.8311C110.681 23.8311 106.122 25.2732 105.553 25.3613C106.086 26.1207 108.632 53.4811 108.761 53.6203Z" fill="white"/>
<path opacity="0.1" d="M107.639 18.4002C107.62 18.3794 107.61 18.369 107.607 18.3655C107.514 18.4126 107.538 18.4168 107.639 18.4002Z" fill="white"/>
<g opacity="0.1">
<path d="M82.2068 7.00373L80.3669 11.7635C80.3275 11.8656 80.2684 11.959 80.1929 12.0383C80.1174 12.1176 80.0271 12.1813 79.927 12.2257C79.8269 12.2701 79.719 12.2943 79.6096 12.297C79.5001 12.2997 79.3912 12.2808 79.289 12.2414C79.1868 12.202 79.0934 12.1429 79.0141 12.0674C78.9348 11.9919 78.8712 11.9015 78.8268 11.8014C78.7824 11.7014 78.7582 11.5935 78.7555 11.484C78.7528 11.3746 78.7716 11.2657 78.811 11.1635L80.6509 6.40376C80.9354 5.66375 80.915 4.84114 80.5941 4.11616C80.2733 3.39118 79.6781 2.82296 78.939 2.53599L77.2351 1.87603C76.4961 1.59108 75.6744 1.61037 74.9496 1.92968C74.2247 2.24899 73.6559 2.84232 73.3673 3.57993L72.6154 5.52382L71.0635 4.92385L71.8154 2.97996C72.0355 2.40952 72.3658 1.88802 72.7874 1.44523C73.209 1.00243 73.7137 0.647023 74.2727 0.399289C74.8317 0.151555 75.434 0.0163505 76.0452 0.00139338C76.6565 -0.0135637 77.2647 0.0920206 77.8351 0.312118L79.539 0.968079C80.1107 1.18894 80.6332 1.52032 81.0767 1.94326C81.5203 2.36621 81.8761 2.87242 82.1239 3.43296C82.3716 3.99351 82.5065 4.59739 82.5207 5.21009C82.535 5.82279 82.4283 6.43228 82.2068 7.00373Z" fill="#6FC7BA"/>
<path d="M81.9149 7.75176C81.788 7.58872 81.6194 7.46298 81.4269 7.38778L72.1475 3.78798C71.8656 3.68187 71.5534 3.69075 71.2781 3.81271C71.0027 3.93466 70.7863 4.15993 70.6755 4.43995L67.0758 13.7234C66.9676 14.0045 66.9755 14.3171 67.0978 14.5924C67.22 14.8676 67.4466 15.0831 67.7277 15.1913L77.0072 18.7911C77.1466 18.8453 77.2954 18.8714 77.4449 18.8679C77.5944 18.8644 77.7418 18.8315 77.8786 18.7709C78.0153 18.7103 78.1388 18.6233 78.2418 18.5149C78.3449 18.4065 78.4255 18.2788 78.4791 18.1392L82.0789 8.85969C82.15 8.67665 82.1723 8.47827 82.1435 8.28402C82.1148 8.08977 82.036 7.90634 81.9149 7.75176ZM74.8673 14.9233L71.9275 13.7874L73.4834 11.0716C73.3628 10.8284 73.3047 10.559 73.3145 10.2877C73.3243 10.0165 73.4015 9.75195 73.5393 9.51808C73.6771 9.28422 73.871 9.08842 74.1036 8.94841C74.3361 8.8084 74.5999 8.72861 74.871 8.71625C75.1422 8.70389 75.4121 8.75936 75.6565 8.87764C75.9008 8.99591 76.1117 9.17326 76.2702 9.39362C76.4287 9.61398 76.5297 9.87039 76.5641 10.1396C76.5985 10.4089 76.5652 10.6824 76.4672 10.9356C76.3869 11.1471 76.2627 11.3391 76.1028 11.4991C75.9428 11.659 75.7507 11.7832 75.5393 11.8635L74.8673 14.9233Z" fill="#6FC7BA"/>
</g>
<g opacity="0.1">
<path d="M95.1039 78.0575L96.5587 81.9925C96.59 82.0769 96.6043 82.1667 96.6009 82.2566C96.5975 82.3466 96.5764 82.435 96.5389 82.5168C96.5013 82.5986 96.448 82.6722 96.382 82.7334C96.316 82.7946 96.2386 82.8422 96.1542 82.8735C96.0698 82.9048 95.98 82.9192 95.8901 82.9158C95.8001 82.9124 95.7117 82.8913 95.6299 82.8537C95.5481 82.8162 95.4745 82.7628 95.4133 82.6968C95.3521 82.6308 95.3045 82.5534 95.2732 82.469L93.8184 78.534C93.5913 77.923 93.1312 77.427 92.5391 77.1547C91.9469 76.8823 91.2709 76.8557 90.6592 77.0808L89.2499 77.6008C88.6393 77.8271 88.1432 78.286 87.8701 78.8771C87.5969 79.4682 87.569 80.1434 87.7923 80.755L88.3861 82.3624L87.1031 82.8367L86.5093 81.2293C86.3347 80.7579 86.2546 80.2568 86.2737 79.7545C86.2927 79.2522 86.4105 78.7586 86.6204 78.3018C86.8302 77.845 87.128 77.4341 87.4966 77.0924C87.8653 76.7507 88.2977 76.4849 88.7691 76.3103L90.1763 75.7879C90.6488 75.6131 91.1512 75.5331 91.6547 75.5526C92.1581 75.5721 92.6528 75.6906 93.1105 75.9014C93.5681 76.1122 93.9797 76.4111 94.3218 76.7811C94.6638 77.151 94.9296 77.5848 95.1039 78.0575Z" fill="#6FC7BA"/>
<path d="M95.3311 78.6779C95.1641 78.6464 94.9918 78.6606 94.8323 78.7189L87.1537 81.5472C86.9223 81.6351 86.7346 81.8104 86.6312 82.0354C86.5278 82.2603 86.5169 82.5169 86.601 82.7498L89.4314 90.4308C89.5177 90.6629 89.6926 90.8513 89.9177 90.9545C90.1428 91.0577 90.3997 91.0673 90.6318 90.9811L98.3104 88.1528C98.4258 88.1103 98.5317 88.0455 98.622 87.962C98.7123 87.8786 98.7852 87.7781 98.8365 87.6663C98.8879 87.5546 98.9167 87.4338 98.9213 87.3109C98.9258 87.1881 98.9061 87.0655 98.8631 86.9502L96.0348 79.2717C95.9791 79.1202 95.8849 78.9858 95.7615 78.8816C95.6381 78.7775 95.4898 78.7073 95.3311 78.6779ZM94.8874 86.9324L92.4572 87.8312L91.9391 85.3107C91.7325 85.2264 91.5502 85.0919 91.4086 84.9193C91.2671 84.7468 91.1708 84.5417 91.1286 84.3226C91.0863 84.1035 91.0994 83.8773 91.1666 83.6645C91.2338 83.4517 91.353 83.259 91.5134 83.1039C91.6738 82.9488 91.8704 82.8361 92.0854 82.7762C92.3003 82.7162 92.5268 82.7108 92.7444 82.7604C92.9619 82.8101 93.1637 82.9132 93.3313 83.0604C93.499 83.2077 93.6273 83.3945 93.7046 83.6038C93.7701 83.7779 93.798 83.9638 93.7864 84.1494C93.7748 84.335 93.724 84.5161 93.6372 84.6806L94.8874 86.9324Z" fill="#6FC7BA"/>
</g>
</svg>
