<svg width="167" height="113" viewBox="0 0 167 113" fill="none" xmlns="http://www.w3.org/2000/svg">
<g opacity="0.4">
<path d="M9.38416 66.9073C9.38416 66.9073 17.9765 81.4337 34.0214 72.6291C34.0214 72.6291 24.2357 58.257 9.38416 66.9073Z" fill="#2E5743"/>
<path d="M24.8763 88.1427C24.8763 88.1427 36.3045 97.4835 46.8405 85.4232C46.8405 85.4232 34.4694 76.5645 24.8763 88.1427Z" fill="#2E5743"/>
<path d="M42.8469 102.233C42.8469 102.233 57.2896 108.509 64.6095 93.0715C64.6129 93.0827 49.3385 87.5616 42.8469 102.233Z" fill="#2E5743"/>
<path d="M43.2781 60.9769C43.2781 60.9769 32.4055 70.9609 42.8416 83.1079C43.5962 82.328 53.1795 71.8869 43.2781 60.9769Z" fill="#2E5743"/>
<path d="M51.1758 77.045C51.1758 77.045 47.4284 87.546 59.1258 92.0357C59.437 90.9376 62.4977 81.0776 51.1758 77.045Z" fill="#2E5743"/>
<path d="M9.90287 47.0357C9.90287 47.0357 12.2985 60.1797 26.6478 58.0586C26.6478 58.0586 23.3174 44.6844 9.90287 47.0357Z" fill="#2E5743"/>
<path d="M25.6886 28.2004C25.6886 28.2004 15.9906 36.208 24.7645 47.7581C24.7645 47.7581 34.2071 38.8285 25.6886 28.2004Z" fill="#2E5743"/>
<path d="M38.0279 44.7345C38.0279 44.7345 23.8344 50.8758 29.9811 66.4711C29.9811 66.4711 44.1855 59.2372 38.0279 44.7345Z" fill="#2E5743"/>
<path d="M75.9146 94.241L75.7108 94.2417L75.1137 94.2639C74.5933 94.2832 73.8202 94.3303 72.8266 94.3096C70.0228 94.2971 67.2271 94.0061 64.4808 93.441C60.4114 92.5967 56.472 91.2163 52.7656 89.3361C50.568 88.2244 48.4521 86.9582 46.4337 85.5469L44.8594 84.3929C44.5978 84.2031 44.3351 84.0095 44.076 83.8148C43.817 83.6201 43.5698 83.3973 43.3186 83.188L41.791 81.9057L40.3266 80.5226L39.5922 79.8235L38.9043 79.0899C38.4506 78.6035 37.9906 78.123 37.5444 77.6343L36.2733 76.1353C36.0665 75.884 35.8533 75.6386 35.6389 75.3896C35.4246 75.1405 35.2551 74.8778 35.0669 74.6208L33.9348 73.096C33.5883 72.5729 33.2478 72.0561 32.9122 71.542C32.7438 71.283 32.5729 71.029 32.4068 70.7775C32.2406 70.526 32.0973 70.2554 31.9461 69.9994C31.6453 69.4788 31.3444 68.9582 31.0679 68.4505C29.0607 64.8166 27.4989 60.954 26.4162 56.9462C25.6888 54.2383 25.1765 51.4773 24.8842 48.6887C24.7997 47.6985 24.7575 46.928 24.7222 46.4083C24.7007 46.1496 24.6862 45.9541 24.6764 45.8143C24.6666 45.6745 24.6559 45.6125 24.6559 45.6125C24.6559 45.6125 24.6517 45.679 24.6566 45.8162C24.6616 45.9535 24.6723 46.1501 24.6851 46.4073C24.7142 46.933 24.744 47.7031 24.8161 48.693C25.4634 55.6633 27.552 62.423 30.9493 68.5437C31.243 69.0542 31.5416 69.5674 31.8287 70.0963C31.9847 70.3549 32.1232 70.6229 32.2904 70.8781C32.4577 71.1333 32.6249 71.3885 32.797 71.6463C33.1326 72.1605 33.4697 72.666 33.8208 73.2041L34.9551 74.7364C35.1433 74.9934 35.3363 75.253 35.5283 75.5088C35.7202 75.7647 35.9409 76.0078 36.1627 76.2546L37.4371 77.7647C37.8796 78.2546 38.3396 78.7351 38.7982 79.2241C39.0286 79.4724 39.2579 79.7169 39.4909 79.9603C39.7239 80.2037 39.9797 80.428 40.2265 80.6631L41.6969 82.0526L43.2294 83.3375C43.4843 83.5457 43.7304 83.7647 43.9879 83.9681L44.7751 84.545L46.3494 85.699C48.3724 87.1097 50.4933 88.3745 52.6962 89.4837C56.4207 91.3672 60.3802 92.7445 64.4696 93.579C67.225 94.1342 70.0297 94.4076 72.8403 94.3952C73.8354 94.4072 74.6077 94.3441 75.1296 94.3162L75.7248 94.2742L75.9146 94.241Z" fill="#2E5743"/>
<path d="M54.6487 83.5379C54.6704 83.6667 54.7085 83.7923 54.7621 83.9114C54.8324 84.143 54.9857 84.4596 55.1616 84.8509C55.5082 85.6432 56.0226 86.7191 56.6359 87.8792C57.2493 89.0393 57.8599 90.0697 58.3144 90.8007C58.5441 91.1675 58.7351 91.4604 58.8729 91.6593C58.9344 91.7685 59.0102 91.8689 59.0983 91.958C59.0559 91.8327 58.9977 91.7133 58.9251 91.6026L58.4166 90.7207C57.986 89.9743 57.4026 88.9397 56.7856 87.7808C56.1685 86.6218 55.6452 85.5567 55.2672 84.7821C55.094 84.4267 54.9419 84.1138 54.8177 83.866C54.7743 83.7504 54.7176 83.6403 54.6487 83.5379Z" fill="#2E5743"/>
<path d="M55.3872 97.2177C55.5142 97.1848 55.6364 97.1354 55.7505 97.0707L56.6861 96.6316C57.4705 96.2588 58.561 95.7522 59.7757 95.2243C60.9903 94.6964 62.1042 94.2399 62.9119 93.9172L63.8682 93.533C63.9939 93.4928 64.114 93.4371 64.2259 93.3673C64.0975 93.3907 63.9721 93.4287 63.8524 93.4807C63.617 93.5521 63.2808 93.6542 62.8764 93.8137C62.0559 94.1077 60.9326 94.5467 59.7142 95.0757C58.4959 95.6048 57.4121 96.1337 56.6368 96.5364C56.2523 96.7347 55.9328 96.9052 55.7283 97.0244C55.6071 97.0747 55.4926 97.1396 55.3872 97.2177Z" fill="#2E5743"/>
<path d="M35.1904 86.3574C35.3419 86.3624 35.4934 86.3532 35.6432 86.3301L36.8752 86.209C37.9155 86.1012 39.3576 85.9734 40.9495 85.8818C42.5414 85.7901 43.9872 85.755 45.0311 85.7399L46.2516 85.7284C46.4046 85.7363 46.5579 85.728 46.7092 85.7037C46.56 85.6737 46.408 85.6596 46.2558 85.6618C45.9611 85.6452 45.5367 85.6313 45.0218 85.6285C43.9763 85.6115 42.5285 85.6267 40.9291 85.7207C39.3298 85.8146 37.8922 85.9573 36.8524 86.0935C36.3344 86.1611 35.9128 86.2238 35.6261 86.2741C35.4783 86.2862 35.3323 86.3141 35.1904 86.3574Z" fill="#2E5743"/>
<path d="M42.7772 70.9254C42.7113 71.0705 42.6616 71.2224 42.6291 71.3784C42.5456 71.6811 42.4484 72.1268 42.3456 72.6884C41.8166 75.5919 41.8604 78.5709 42.4745 81.4576C42.593 82.0091 42.7059 82.4481 42.7977 82.7507C42.8318 82.9114 42.8796 83.0688 42.9407 83.2213C42.9252 83.0581 42.894 82.8968 42.8474 82.7396C42.7567 82.4408 42.6804 81.9744 42.5788 81.4382C42.0375 78.5586 41.9943 75.6076 42.4511 72.7135C42.5352 72.1576 42.619 71.7078 42.6861 71.4182C42.7326 71.2573 42.7632 71.0923 42.7772 70.9254Z" fill="#2E5743"/>
<path d="M23.5044 68.7886C23.6356 68.8482 23.7726 68.8941 23.9132 68.9256L25.0442 69.2512C25.9961 69.5375 27.301 69.9654 28.6984 70.5366C30.0957 71.1078 31.3343 71.7068 32.2123 72.1665L33.2484 72.7168C33.3719 72.7945 33.5035 72.8585 33.6409 72.9077C33.5312 72.813 33.4117 72.7303 33.2845 72.661C33.0503 72.5077 32.7063 72.3021 32.2845 72.0548C31.1519 71.4207 29.9808 70.8579 28.7782 70.3696C27.5752 69.8814 26.3433 69.4679 25.0895 69.1314C24.6089 68.9999 24.2063 68.91 23.9447 68.8548C23.8006 68.8175 23.6531 68.7953 23.5044 68.7886Z" fill="#2E5743"/>
<path d="M36.0341 52.3035C36.0341 52.3035 35.9947 52.3481 35.9392 52.4343L35.7053 52.8195C35.5023 53.1586 35.2209 53.6561 34.8819 54.273C34.2088 55.5096 33.337 57.2471 32.4712 59.2194C31.6054 61.1918 30.935 63.015 30.4926 64.3528C30.2858 65.0154 30.0969 65.5623 29.9878 65.9422L29.8659 66.3872C29.8477 66.436 29.8371 66.4874 29.8346 66.5395C29.8346 66.5395 29.8655 66.4934 29.9015 66.3968L30.0537 65.9711L30.6087 64.3992C31.084 63.0758 31.7776 61.2619 32.6333 59.2967C33.4891 57.3315 34.3612 55.5816 34.995 54.3366L35.7754 52.8757L35.9801 52.4749C36.007 52.421 36.0252 52.3631 36.0341 52.3035Z" fill="#2E5743"/>
<path d="M15.9102 49.7285C16.0461 49.8408 16.1913 49.9414 16.3442 50.0292L17.5568 50.8115C18.5749 51.4775 19.962 52.4312 21.4345 53.559C22.907 54.6867 24.1839 55.7881 25.0918 56.6018C25.5246 56.9926 25.8813 57.3208 26.1574 57.5715C26.2823 57.6961 26.4167 57.8108 26.5593 57.9146C26.453 57.7735 26.3351 57.6414 26.2069 57.5198C25.969 57.2738 25.619 56.9272 25.1745 56.5114C24.287 55.6711 23.0191 54.5588 21.5395 53.421C20.0598 52.2832 18.6624 51.3489 17.6226 50.7059C17.1164 50.3822 16.6784 50.1358 16.3791 49.9696C16.2314 49.8735 16.0743 49.7927 15.9102 49.7285Z" fill="#2E5743"/>
<path d="M25.54 33.623C25.494 33.7991 25.4639 33.9789 25.4501 34.1603C25.4038 34.5048 25.3445 35.0083 25.2759 35.6289C25.1435 36.8726 24.9865 38.5726 24.8803 40.4938C24.7742 42.415 24.7107 44.1274 24.6943 45.3767C24.6874 45.9989 24.686 46.5052 24.6902 46.8548C24.6827 47.0362 24.6914 47.2179 24.7163 47.3977C24.7499 47.2136 24.767 47.0268 24.7672 46.8396C24.7824 46.4597 24.8032 45.9638 24.8255 45.3654C24.8774 44.1257 24.9476 42.395 25.0632 40.4913C25.1788 38.5877 25.2988 36.8867 25.3993 35.6322C25.4463 35.0345 25.4757 34.5401 25.5144 34.1571C25.5374 33.98 25.5459 33.8014 25.54 33.623Z" fill="#2E5743"/>
<path d="M156.924 66.8714C156.924 66.8714 148.41 81.4435 132.317 72.7287C132.317 72.7287 142.03 58.3018 156.924 66.8714Z" fill="#2E5743"/>
<path d="M141.546 88.1893C141.546 88.1893 130.167 97.5948 119.566 85.591C119.571 85.576 131.89 76.6663 141.546 88.1893Z" fill="#2E5743"/>
<path d="M123.648 102.375C123.648 102.375 109.242 108.733 101.84 93.3315C101.84 93.3315 117.081 87.7437 123.648 102.375Z" fill="#2E5743"/>
<path d="M122.998 61.1273C122.998 61.1273 133.924 71.0529 123.554 83.2518C122.803 82.4659 113.174 72.0957 122.998 61.1273Z" fill="#2E5743"/>
<path d="M115.188 77.2326C115.188 77.2326 118.991 87.7134 107.317 92.2694C107 91.1729 103.891 81.3145 115.188 77.2326Z" fill="#2E5743"/>
<path d="M156.301 47.0085C156.301 47.0085 153.976 60.1651 139.612 58.1198C139.612 58.1198 142.871 44.7279 156.301 47.0085Z" fill="#2E5743"/>
<path d="M140.428 28.2448C140.428 28.2448 150.168 36.2041 141.456 47.801C141.441 47.8089 131.952 38.9262 140.428 28.2448Z" fill="#2E5743"/>
<path d="M128.15 44.8528C128.15 44.8528 142.376 50.9181 136.309 66.561C136.32 66.5644 122.081 59.3915 128.15 44.8528Z" fill="#2E5743"/>
<path d="M90.5375 94.56L90.7402 94.5634L91.3347 94.5775C91.859 94.5951 92.6275 94.6407 93.621 94.6147C96.4246 94.5853 99.2185 94.2795 101.962 93.7015C106.034 92.832 109.972 91.4271 113.674 89.5235C115.859 88.4048 117.963 87.1354 119.971 85.7244L121.52 84.5565L122.304 83.9753C122.561 83.7706 122.804 83.554 123.056 83.3396C123.561 82.9157 124.064 82.4831 124.575 82.0528L126.033 80.6581C126.278 80.4254 126.522 80.1927 126.763 79.9589L127.447 79.2217C127.903 78.7301 128.353 78.2697 128.799 77.7587L130.063 76.2493C130.269 75.9968 130.479 75.7541 130.692 75.5039C130.905 75.2537 131.075 74.9864 131.261 74.7284L132.384 73.2012C132.728 72.6763 133.067 72.154 133.4 71.638C133.569 71.3831 133.735 71.127 133.901 70.8709C134.067 70.6148 134.206 70.3509 134.357 70.0903C134.659 69.5692 134.955 69.0545 135.245 68.5461C137.236 64.8931 138.781 61.0139 139.846 56.9919C140.559 54.2786 141.055 51.5132 141.332 48.7215C141.41 47.7346 141.448 46.9639 141.485 46.4414C141.5 46.1852 141.515 45.9859 141.524 45.8461C141.533 45.7062 141.547 45.6452 141.547 45.6452L141.544 45.8479L141.517 46.4428C141.492 46.9649 141.465 47.739 141.402 48.7304C141.147 51.53 140.666 54.3045 139.962 57.0265C138.904 61.0626 137.356 64.9544 135.355 68.6154L134.485 70.169C134.334 70.4295 134.192 70.7009 134.027 70.9532C133.862 71.2056 133.694 71.4692 133.525 71.7242C133.191 72.2438 132.852 72.7662 132.508 73.2911C132.137 73.7996 131.77 74.2932 131.383 74.8257C131.195 75.0875 131.005 75.3444 130.813 75.605C130.621 75.8656 130.403 76.1061 130.183 76.3541L128.916 77.8711C128.473 78.3622 128.021 78.8264 127.559 79.3366L126.874 80.0776L126.14 80.7794L124.677 82.1768L123.151 83.4699C122.9 83.6843 122.651 83.9035 122.396 84.1045L121.612 84.6856L120.044 85.848C118.027 87.2693 115.912 88.545 113.714 89.6655C110 91.5725 106.047 92.9723 101.961 93.8275C99.2092 94.3972 96.4063 94.6844 93.5961 94.6847C92.6011 94.7021 91.8273 94.6468 91.3064 94.6179L90.7137 94.584C90.6546 94.5786 90.5958 94.5706 90.5375 94.56Z" fill="#2E5743"/>
<path d="M111.749 83.7484C111.728 83.8774 111.691 84.0031 111.638 84.1226C111.551 84.3452 111.418 84.6682 111.247 85.0653C110.902 85.8546 110.397 86.9344 109.785 88.1004C109.173 89.2664 108.577 90.2985 108.122 91.0308C107.895 91.3988 107.706 91.689 107.57 91.8886C107.507 91.9984 107.432 92.1003 107.345 92.1923C107.387 92.0734 107.444 91.9603 107.514 91.8558C107.652 91.6117 107.818 91.3148 108.015 90.9663C108.441 90.2214 109.024 89.181 109.631 88.0177C110.238 86.8543 110.763 85.7887 111.133 85.0109C111.308 84.6557 111.457 84.3458 111.576 84.0961C111.619 83.9734 111.677 83.8565 111.749 83.7484Z" fill="#2E5743"/>
<path d="M111.087 97.4325C110.96 97.4002 110.838 97.3514 110.723 97.2874L109.789 96.8545C108.999 96.4848 107.909 95.9852 106.689 95.4589C105.469 94.9327 104.356 94.487 103.546 94.1686L102.592 93.7906C102.465 93.7529 102.344 93.6978 102.233 93.6268C102.362 93.649 102.487 93.6864 102.607 93.7382C102.839 93.8073 103.176 93.9076 103.585 94.066C104.403 94.3545 105.53 94.7837 106.75 95.31C107.97 95.8362 109.058 96.3556 109.835 96.7542C110.221 96.9504 110.541 97.1192 110.746 97.2373C110.867 97.289 110.982 97.3545 111.087 97.4325Z" fill="#2E5743"/>
<path d="M131.237 86.4644C131.084 86.4721 130.931 86.4647 130.779 86.4421L129.548 86.3239C128.506 86.2254 127.067 86.1064 125.471 86.0222C123.875 85.9379 122.432 85.9117 121.388 85.9022L120.149 85.8916C119.997 85.8981 119.844 85.8894 119.693 85.8656C119.844 85.8404 119.996 85.8259 120.15 85.8224C120.44 85.8032 120.864 85.7907 121.383 85.7825C122.429 85.7599 123.88 85.7685 125.478 85.849C127.075 85.9295 128.515 86.0732 129.555 86.2038C130.074 86.2686 130.495 86.329 130.783 86.3741C130.937 86.3898 131.089 86.4201 131.237 86.4644Z" fill="#2E5743"/>
<path d="M123.553 71.0679C123.617 71.2197 123.665 71.3774 123.698 71.5387C123.787 71.8422 123.883 72.2862 123.992 72.8483C124.533 75.7491 124.504 78.7274 123.907 81.617C123.791 82.1691 123.683 82.6135 123.589 82.9155C123.559 83.0758 123.512 83.2325 123.45 83.3832C123.466 83.2215 123.496 83.0614 123.539 82.9047C123.63 82.6017 123.706 82.1397 123.802 81.5981C124.327 78.7127 124.354 75.7587 123.882 72.8643C123.794 72.3125 123.711 71.8644 123.64 71.5702C123.596 71.4058 123.567 71.2376 123.553 71.0679Z" fill="#2E5743"/>
<path d="M142.818 68.8294C142.686 68.8905 142.548 68.9369 142.406 68.9674L141.28 69.304C140.33 69.5916 139.028 70.0265 137.633 70.6052C136.239 71.1838 135.004 71.7895 134.128 72.2538L133.094 72.8134C132.972 72.8893 132.842 72.9531 132.707 73.0038C132.814 72.9071 132.932 72.8233 133.059 72.754C133.291 72.6032 133.635 72.392 134.056 72.1425C135.185 71.5037 136.353 70.9347 137.553 70.4386C138.751 69.9427 139.98 69.5222 141.231 69.1796C141.71 69.0492 142.112 68.9572 142.374 68.8968C142.52 68.8598 142.668 68.8372 142.818 68.8294Z" fill="#2E5743"/>
<path d="M130.199 52.416C130.237 52.4539 130.268 52.4975 130.291 52.5452L130.531 52.9302C130.736 53.2682 131.017 53.7593 131.358 54.3782C132.039 55.6074 132.92 57.3403 133.796 59.3079C134.673 61.2756 135.352 63.0989 135.806 64.4318C136.017 65.0932 136.204 65.6417 136.316 66.0173L136.44 66.4617C136.458 66.5118 136.468 66.5643 136.471 66.6175C136.443 66.5715 136.421 66.5225 136.405 66.4714L136.25 66.0466L135.686 64.4814C135.203 63.1606 134.5 61.3503 133.634 59.3898C132.767 57.4292 131.885 55.6878 131.244 54.4461L130.456 52.9895L130.247 52.5849C130.222 52.5315 130.206 52.4745 130.199 52.416Z" fill="#2E5743"/>
<path d="M150.321 49.7329C150.187 49.8471 150.042 49.9486 149.889 50.0359L148.68 50.8247C147.665 51.4998 146.284 52.4572 144.816 53.5965C143.349 54.7359 142.079 55.8404 141.18 56.6562L140.116 57.6306C139.99 57.7553 139.856 57.8718 139.715 57.9795C139.82 57.837 139.939 57.7046 140.069 57.584C140.302 57.3356 140.654 56.9882 141.093 56.5652C141.975 55.7239 143.238 54.6011 144.711 53.4592C146.183 52.3172 147.578 51.368 148.613 50.7231C149.117 50.3968 149.555 50.1442 149.852 49.9802C150.002 49.8863 150.159 49.8036 150.321 49.7329Z" fill="#2E5743"/>
<path d="M140.59 33.6777C140.638 33.852 140.669 34.0305 140.684 34.2108C140.734 34.5599 140.798 35.0593 140.865 35.6821C141.005 36.9214 141.17 38.6243 141.286 40.5449C141.403 42.4655 141.476 44.1738 141.5 45.423C141.512 46.05 141.514 46.5515 141.51 46.9048C141.518 47.0849 141.511 47.2653 141.488 47.4441C141.458 47.2663 141.443 47.0861 141.445 46.9057L141.376 45.427C141.318 44.1876 141.238 42.4572 141.112 40.5542C140.987 38.6512 140.85 36.9363 140.743 35.6947L140.616 34.2191C140.596 34.0394 140.587 33.8586 140.59 33.6777Z" fill="#2E5743"/>
</g>
<path d="M83.6318 37.5C100.273 37.5 113.765 50.9905 113.765 67.6318C113.765 84.2733 100.273 97.7646 83.6318 97.7646C66.9905 97.7645 53.5 84.2733 53.5 67.6318C53.5001 50.9905 66.9905 37.5001 83.6318 37.5Z" fill="#5FD5CF" stroke="#B6EBE3" stroke-width="3"/>
<path d="M99.2055 54.2809C99.6042 54.6071 93.6959 62.5574 86.0114 72.0301L81.3475 77.6848L80.7072 78.458L80.0305 77.7573C73.9893 71.5589 69.9174 66.9675 70.2074 66.6776C70.4974 66.3876 75.1008 70.4836 81.2871 76.4886L79.9822 76.6215L84.5494 70.9065C92.2339 61.3733 98.7947 53.9546 99.2055 54.2809Z" fill="white"/>
<path d="M123.562 56.5235C122.749 53.6546 119.024 53.9363 119.024 53.9363L119.118 55.9288C121.278 55.5533 122.613 58.0779 122.613 58.0779L123.562 56.5235Z" fill="#6FC7BA"/>
<path d="M41.4443 63.5537C40.641 60.6848 36.9062 60.9561 36.9062 60.9561L37.0106 62.9591C39.17 62.5835 40.5054 65.1081 40.5054 65.1081L41.4443 63.5537Z" fill="#E0E0E0"/>
<path d="M85.0204 23.8585C89.3498 25.1729 92.0412 20.1863 92.0412 20.1863L89.4123 18.6841C88.1187 21.7407 83.7998 21.386 83.7998 21.386L85.0204 23.8585Z" fill="#E0E0E0"/>
<path d="M59.0151 33.2314C57.0017 33.4505 56.7617 35.9751 56.7617 35.9751L58.1075 36.1316C58.1075 34.6502 59.954 34.0452 59.954 34.0452L59.0151 33.2314Z" fill="#6FC7BA"/>
<path d="M143.994 47.7175C144.286 45.7145 141.907 44.8486 141.907 44.8486L141.417 46.1109C142.857 46.476 142.992 48.4164 142.992 48.4164L143.994 47.7175Z" fill="#E0E0E0"/>
<path d="M72.7618 2.86886C73.0539 0.865874 70.6754 0 70.6754 0L70.1851 1.27273C71.6247 1.63786 71.7603 3.56782 71.7603 3.56782L72.7618 2.86886Z" fill="#6FC7BA"/>
<path d="M23.0215 35.1772C22.6668 38.3069 26.8188 39.0789 26.8188 39.0789L27.5699 36.9925C25.0766 36.7629 24.7219 33.8628 24.7219 33.8628L23.0215 35.1772Z" fill="#6FC7BA"/>
<path d="M118.618 16.7959C120.641 16.9106 121.288 14.459 121.288 14.459L119.984 14.0835C119.744 15.544 117.825 15.8465 117.825 15.8465L118.618 16.7959Z" fill="#6FC7BA"/>
<path d="M126.665 31.038C126.123 31.1901 125.558 31.2431 124.996 31.1945C124.435 31.2443 123.869 31.1913 123.327 31.038C124.429 30.8155 125.564 30.8155 126.665 31.038Z" fill="#E0E0E0"/>
<path d="M128.438 26.4995C128.647 27.6165 128.647 28.7625 128.438 29.8796C128.216 28.7639 128.216 27.6152 128.438 26.4995Z" fill="#E0E0E0"/>
<path d="M130.316 30.9222C130.858 30.7701 131.424 30.717 131.985 30.7657C132.546 30.7159 133.112 30.7689 133.654 30.9222C132.553 31.1447 131.418 31.1447 130.316 30.9222Z" fill="#E0E0E0"/>
<path d="M128.554 35.471C128.331 34.3518 128.331 33.1998 128.554 32.0806C128.762 33.2011 128.762 34.3505 128.554 35.471Z" fill="#E0E0E0"/>
<path d="M131.245 33.5729C131.183 33.625 130.859 33.3538 130.525 32.9678C130.192 32.5818 129.993 32.2062 130.056 32.1541C130.119 32.1019 130.452 32.3627 130.776 32.7592C131.099 33.1556 131.318 33.4581 131.245 33.5729Z" fill="#E0E0E0"/>
<path d="M131.089 28.356C131.151 28.429 130.932 28.7524 130.588 29.0967C130.244 29.4409 129.92 29.6704 129.858 29.6078C129.795 29.5452 130.014 29.2114 130.359 28.8671C130.703 28.5229 131.026 28.356 131.089 28.356Z" fill="#E0E0E0"/>
<path d="M127.271 29.6807C127.208 29.7538 126.895 29.5869 126.572 29.3156C126.248 29.0444 126.04 28.7731 126.092 28.7105C126.144 28.648 126.457 28.8044 126.78 29.0652C127.104 29.326 127.323 29.6182 127.271 29.6807Z" fill="#E0E0E0"/>
<path d="M127.114 31.9561C127.187 32.0083 126.989 32.3317 126.676 32.6759C126.363 33.0202 126.06 33.2393 125.998 33.1767C125.935 33.1141 126.123 32.7907 126.436 32.4568C126.749 32.123 127.051 31.8935 127.114 31.9561Z" fill="#E0E0E0"/>
<path d="M35.7802 22.7317C34.6786 22.9543 33.5435 22.9543 32.4419 22.7317C32.9843 22.5796 33.5498 22.5266 34.111 22.5753C34.6723 22.5255 35.238 22.5785 35.7802 22.7317Z" fill="#6FC7BA"/>
<path d="M37.5537 18.1948C37.7763 19.314 37.7763 20.4661 37.5537 21.5853C37.3311 20.4661 37.3311 19.314 37.5537 18.1948Z" fill="#6FC7BA"/>
<path d="M39.4419 22.6279C40.5435 22.4053 41.6786 22.4053 42.7802 22.6279C41.6786 22.8504 40.5435 22.8504 39.4419 22.6279Z" fill="#6FC7BA"/>
<path d="M37.6679 27.1662C37.4453 26.0505 37.4453 24.9018 37.6679 23.7861C37.8905 24.9018 37.8905 26.0505 37.6679 27.1662Z" fill="#6FC7BA"/>
<path d="M40.3703 25.1829C40.2973 25.2455 39.9739 24.9742 39.6505 24.5778C39.3271 24.1814 39.108 23.8267 39.1811 23.7641C39.2541 23.7015 39.5671 23.9832 39.9009 24.3692C40.2347 24.7552 40.4329 25.1829 40.3703 25.1829Z" fill="#6FC7BA"/>
<path d="M40.2133 20.0724C40.2759 20.135 40.0464 20.4688 39.7126 20.8131C39.3788 21.1574 39.0449 21.3764 38.9823 21.3138C38.9197 21.2513 39.1388 20.9279 39.4831 20.5836C39.8274 20.2393 40.1508 19.9681 40.2133 20.0724Z" fill="#6FC7BA"/>
<path d="M36.3847 21.386C36.3325 21.4486 36.0195 21.2921 35.6961 21.0209C35.3727 20.7496 35.1537 20.4784 35.2163 20.4054C35.2788 20.3323 35.5814 20.4993 35.9048 20.7705C36.2282 21.0417 36.4473 21.313 36.3847 21.386Z" fill="#6FC7BA"/>
<path d="M36.2385 23.6501C36.3011 23.7127 36.1029 24.0361 35.8003 24.3803C35.4978 24.7246 35.1848 24.9437 35.1118 24.8811C35.0388 24.8185 35.2474 24.4951 35.55 24.1613C35.8525 23.8274 36.1655 23.5875 36.2385 23.6501Z" fill="#6FC7BA"/>
<g opacity="0.1">
<path d="M121.322 44.5441L117.258 43.1231C117.209 43.1083 117.164 43.0834 117.126 43.0502C117.088 43.0169 117.057 42.976 117.035 42.9301C117 42.8359 117 42.732 117.035 42.6377L121.316 30.3573C121.332 30.3096 121.357 30.2655 121.39 30.2276C121.423 30.1898 121.464 30.1591 121.509 30.1373C121.554 30.1154 121.604 30.103 121.654 30.1006C121.704 30.0982 121.754 30.106 121.801 30.1234L125.895 31.5386C125.988 31.5744 126.065 31.643 126.111 31.7316C126.146 31.8259 126.146 31.9296 126.111 32.024L121.831 44.3044C121.803 44.3899 121.744 44.4625 121.667 44.5087C121.59 44.5549 121.498 44.5716 121.41 44.5558L121.322 44.5441ZM121.907 30.9713L117.878 42.5325L121.222 43.702L125.252 32.1409L121.907 30.9713ZM116.421 41.2343L107.065 37.9829C106.447 37.8107 105.922 37.4012 105.604 36.8437C105.287 36.2862 105.202 35.6259 105.369 35.0063C105.487 34.6664 105.651 34.3439 105.854 34.0473C105.522 33.7451 105.275 33.3606 105.138 32.9324C105.002 32.5043 104.98 32.0477 105.077 31.6088C105.202 31.2183 105.401 30.8552 105.661 30.5386C105.364 30.2368 105.156 29.8585 105.06 29.4457C104.964 29.0329 104.984 28.6016 105.118 28.1995C105.22 27.8712 105.402 27.5735 105.648 27.3336C105.894 27.0936 106.196 26.9189 106.527 26.8252C106.277 26.2718 106.251 25.6426 106.457 25.0709C106.637 24.5119 107.03 24.0465 107.551 23.776C108.073 23.5056 108.68 23.4518 109.24 23.6265L114.433 25.4393C114.634 23.7537 115.374 22.1782 116.544 20.9482C116.987 20.4649 117.58 20.1446 118.227 20.0385C118.874 19.9325 119.537 20.0469 120.111 20.3634C120.731 20.726 120.696 21.1178 120.62 21.2698C120.544 21.4219 120.474 21.6382 120.345 21.9482C120.035 22.7025 119.304 24.4686 119.322 24.9072C119.339 25.3457 120.088 28.334 120.585 30.1994C120.606 30.2721 120.606 30.349 120.585 30.4217L116.907 40.9477C116.877 41.0319 116.818 41.1031 116.741 41.1489C116.665 41.1948 116.574 41.2126 116.486 41.1992L116.421 41.2343ZM118.568 24.9656C118.538 24.3809 119.065 23.0885 119.649 21.6792L119.872 21.1412C119.585 20.9314 119.244 20.8095 118.889 20.7903C118.565 20.7544 118.237 20.7962 117.932 20.9121C117.627 21.028 117.354 21.2147 117.135 21.457C115.961 22.6797 115.254 24.2751 115.135 25.9656C115.129 26.0235 115.11 26.0794 115.08 26.129C115.05 26.1786 115.008 26.2207 114.959 26.2522C114.911 26.2849 114.856 26.3057 114.798 26.3128C114.74 26.3199 114.681 26.3132 114.626 26.2931L108.989 24.3282C108.623 24.2161 108.227 24.2527 107.888 24.43C107.549 24.6073 107.293 24.9111 107.176 25.2756C107.081 25.5428 107.056 25.8302 107.104 26.1099C107.152 26.3896 107.272 26.6521 107.451 26.872C107.5 26.9296 107.53 27.0005 107.538 27.0754C107.547 27.1504 107.533 27.2262 107.498 27.2931C107.462 27.3602 107.408 27.4154 107.341 27.4518C107.275 27.4882 107.199 27.5042 107.123 27.4977C106.834 27.4826 106.549 27.5673 106.314 27.7376C106.08 27.9079 105.912 28.1536 105.837 28.4334C105.727 28.7522 105.727 29.099 105.839 29.4174C105.95 29.7358 106.166 30.0073 106.451 30.1877C106.507 30.2216 106.554 30.2697 106.585 30.3272C106.617 30.3847 106.633 30.4495 106.632 30.5152C106.631 30.5805 106.614 30.6445 106.582 30.7016C106.551 30.7587 106.506 30.8072 106.451 30.8427C106.123 31.0984 105.887 31.4534 105.778 31.8544C105.728 32.1847 105.774 32.5226 105.912 32.8269C106.05 33.1312 106.274 33.3887 106.556 33.5678C106.616 33.5885 106.67 33.6239 106.713 33.6709C106.756 33.7179 106.787 33.775 106.802 33.8368C106.817 33.898 106.817 33.962 106.802 34.0231C106.786 34.0843 106.756 34.1408 106.714 34.1876C106.446 34.5018 106.238 34.8625 106.1 35.252C106.006 35.6802 106.081 36.1283 106.31 36.5023C106.539 36.8763 106.904 37.1471 107.328 37.2578L116.299 40.3805L119.807 30.2989C119.591 29.4743 118.585 25.644 118.556 24.9656H118.568Z" fill="#6FC7BA"/>
</g>
<g opacity="0.1">
<path d="M51.4436 20.5491L54.3495 19.5331C54.3842 19.5225 54.4162 19.5047 54.4436 19.4809C54.4709 19.4572 54.493 19.4279 54.5084 19.3951C54.5337 19.3277 54.5337 19.2534 54.5084 19.186L51.4477 10.4055C51.4365 10.3714 51.4185 10.3398 51.3948 10.3128C51.3711 10.2858 51.3421 10.2638 51.3097 10.2482C51.2774 10.2326 51.2422 10.2236 51.2062 10.2219C51.1703 10.2202 51.1344 10.2258 51.1007 10.2383L48.1739 11.2501C48.1072 11.2757 48.0522 11.3248 48.0192 11.3881C47.9942 11.4555 47.9942 11.5297 48.0192 11.5972L51.0798 20.3777C51.0999 20.4389 51.1415 20.4907 51.1968 20.5238C51.2521 20.5568 51.3174 20.5688 51.3808 20.5575L51.4436 20.5491ZM51.0254 10.8445L53.9063 19.1108L51.5146 19.947L48.6338 11.6808L51.0254 10.8445ZM54.9474 18.1826L61.6373 15.8578C62.0793 15.7347 62.4546 15.4419 62.6817 15.0433C62.9088 14.6447 62.9693 14.1725 62.8499 13.7296C62.7653 13.4865 62.6486 13.2559 62.5028 13.0439C62.7407 12.8278 62.9173 12.5528 63.0149 12.2467C63.1126 11.9406 63.1277 11.6142 63.0589 11.3003C62.9692 11.0211 62.8273 10.7615 62.6408 10.5351C62.8536 10.3193 63.0025 10.0489 63.0711 9.75372C63.1397 9.45856 63.1254 9.15018 63.0297 8.86265C62.9568 8.62792 62.8265 8.41511 62.6505 8.24352C62.4745 8.07193 62.2585 7.947 62.022 7.88007C62.201 7.48433 62.219 7.03448 62.0722 6.62571C61.9435 6.22601 61.6622 5.89328 61.2895 5.69988C60.9168 5.50648 60.4828 5.46805 60.0819 5.59295L56.369 6.88912C56.2256 5.6839 55.6961 4.55742 54.8596 3.67796C54.5429 3.33243 54.1192 3.10337 53.6567 3.02754C53.1941 2.95171 52.7195 3.03352 52.3091 3.25984C51.8659 3.51907 51.891 3.79922 51.9453 3.90793C51.9997 4.01664 52.0498 4.17134 52.1418 4.39295C52.3634 4.93232 52.8861 6.19504 52.8735 6.50863C52.861 6.82222 52.3258 8.95882 51.9704 10.2926C51.9557 10.3446 51.9557 10.3996 51.9704 10.4515L54.6004 17.9777C54.6219 18.0379 54.6638 18.0887 54.7187 18.1215C54.7736 18.1543 54.8382 18.167 54.9014 18.1575L54.9474 18.1826ZM53.4129 6.55045C53.4338 6.13233 53.0575 5.20828 52.6394 4.20061L52.4805 3.81594C52.6854 3.66595 52.9294 3.57878 53.1829 3.56507C53.4148 3.53941 53.6495 3.56925 53.8676 3.65213C54.0857 3.735 54.281 3.86854 54.4373 4.04173C55.2763 4.91599 55.7823 6.0567 55.8673 7.26543C55.8714 7.30683 55.8848 7.34676 55.9065 7.38224C55.9283 7.41772 55.9577 7.44783 55.9927 7.47031C56.0273 7.49373 56.0669 7.50859 56.1083 7.51368C56.1498 7.51877 56.1918 7.51394 56.231 7.49958L60.2617 6.0947C60.5234 6.01455 60.8062 6.04069 61.0488 6.16746C61.2914 6.29423 61.4743 6.51143 61.5579 6.77205C61.6261 6.96314 61.6439 7.16861 61.6095 7.36858C61.575 7.56854 61.4896 7.75624 61.3614 7.91352C61.3266 7.95471 61.3048 8.00534 61.2988 8.05895C61.2929 8.11256 61.303 8.16673 61.3279 8.21457C61.3532 8.26256 61.3921 8.30204 61.4397 8.32806C61.4873 8.35409 61.5415 8.36552 61.5955 8.36091C61.8023 8.35007 62.0065 8.41062 62.174 8.53241C62.3415 8.6542 62.462 8.82984 62.5154 9.0299C62.5943 9.25787 62.5938 9.50579 62.5141 9.73347C62.4344 9.96115 62.2802 10.1552 62.0764 10.2843C62.0361 10.3085 62.0029 10.3429 61.9802 10.384C61.9574 10.4251 61.9459 10.4714 61.9467 10.5184C61.9475 10.5651 61.9597 10.6109 61.9823 10.6517C62.0049 10.6925 62.0372 10.7272 62.0764 10.7526C62.3106 10.9354 62.4792 11.1892 62.5572 11.4759C62.5936 11.7121 62.5604 11.9537 62.4616 12.1713C62.3629 12.3889 62.2028 12.5729 62.0011 12.701C61.9581 12.7158 61.9194 12.7412 61.8888 12.7748C61.8581 12.8084 61.8363 12.8491 61.8255 12.8933C61.8147 12.9371 61.8147 12.9828 61.8256 13.0266C61.8366 13.0703 61.8581 13.1107 61.8882 13.1442C62.08 13.3688 62.2288 13.6268 62.3272 13.9052C62.3947 14.2114 62.3409 14.5318 62.1772 14.7992C62.0135 15.0666 61.7526 15.2602 61.4492 15.3393L55.0352 17.5721L52.5265 10.3637C52.6812 9.77415 53.4004 7.03547 53.4213 6.55045H53.4129Z" fill="#6FC7BA"/>
</g>
</svg>
