<svg width="350" height="197" viewBox="0 0 350 197" fill="none" xmlns="http://www.w3.org/2000/svg">
  <g clip-path="url(#clip0_471_37050)">
    <path d="M211.461 77.3312L211.462 77.3312C216.491 77.2959 221.5 77.1901 226.413 77.0844L226.415 77.0844C229.781 77.0082 233.409 76.5855 237.094 76.1392C237.313 76.1127 237.532 76.0861 237.751 76.0595C241.242 75.6357 244.783 75.2059 248.28 75.0205C255.72 74.6261 262.747 75.3557 268.332 79.4449C272.696 82.9549 275.631 87.9456 276.583 93.4776L276.586 93.4961L276.59 93.5144C278.61 103.133 278.493 115.104 275.794 126.23C273.092 137.366 267.837 147.524 259.703 153.671L259.702 153.671C250.802 160.41 239.699 163.243 228.133 163.976C216.567 164.708 204.623 163.335 194.11 161.735C170.134 158.083 146.287 151.767 124.595 140.893C115.187 136.138 104.989 130.182 96.2456 122.838C87.4993 115.49 80.2629 106.797 76.6938 96.5787C74.2937 89.6845 72.6514 81.4162 73.0938 73.5912C73.5358 65.7744 76.0484 58.4967 81.851 53.3993C88.8815 47.5602 97.5966 44.1448 106.709 43.657L106.718 43.6566L106.726 43.656C115.882 43.0154 122.298 47.226 129.643 52.8013C140.936 61.4239 153.655 68.9169 167.548 72.7853C181.678 76.7342 196.73 77.4194 211.461 77.3312Z" fill="#213229" stroke="#213229" stroke-width="2.04344"/>
    <path d="M237.734 192.967C236.98 193.153 235.977 193.341 234.729 193.526C231.511 194.002 226.827 194.435 221.006 194.799C209.374 195.527 193.288 195.978 175.51 195.978C157.732 195.978 141.646 195.527 130.014 194.799C124.193 194.435 119.509 194.002 116.291 193.526C115.043 193.341 114.039 193.153 113.286 192.967C114.039 192.78 115.043 192.592 116.291 192.408C119.509 191.932 124.193 191.499 130.014 191.135C141.646 190.407 157.732 189.956 175.51 189.956C193.288 189.956 209.374 190.407 221.006 191.135C226.827 191.499 231.511 191.932 234.729 192.408C235.977 192.592 236.98 192.78 237.734 192.967ZM111.894 192.472C111.895 192.472 111.904 192.478 111.918 192.491C111.9 192.478 111.893 192.472 111.894 192.472ZM111.894 193.462C111.893 193.462 111.9 193.455 111.918 193.443C111.904 193.456 111.895 193.462 111.894 193.462ZM239.102 193.443C239.12 193.455 239.127 193.462 239.126 193.462C239.125 193.462 239.116 193.456 239.102 193.443ZM239.102 192.491C239.116 192.478 239.125 192.472 239.126 192.472C239.127 192.472 239.12 192.478 239.102 192.491Z" fill="#1A2921" stroke="#1A2921" stroke-width="2.04344"/>
    <path d="M214.14 4.45596C215.09 4.45596 215.861 3.68325 215.861 2.73006C215.861 1.77687 215.09 1.00415 214.14 1.00415C213.191 1.00415 212.42 1.77687 212.42 2.73006C212.42 3.68325 213.191 4.45596 214.14 4.45596Z" fill="#8AB4AE"/>
    <path d="M102.425 151.65C103.375 151.65 104.145 150.878 104.145 149.924C104.145 148.971 103.375 148.198 102.425 148.198C101.475 148.198 100.705 148.971 100.705 149.924C100.705 150.878 101.475 151.65 102.425 151.65Z" fill="#8AB4AE"/>
    <path d="M127.734 3.45181C128.684 3.45181 129.454 2.67909 129.454 1.7259C129.454 0.772712 128.684 0 127.734 0C126.784 0 126.014 0.772712 126.014 1.7259C126.014 2.67909 126.784 3.45181 127.734 3.45181Z" fill="#8AB4AE"/>
    <path d="M264.338 68.1378C265.288 68.1378 266.058 67.3651 266.058 66.4119C266.058 65.4587 265.288 64.686 264.338 64.686C263.388 64.686 262.618 65.4587 262.618 66.4119C262.618 67.3651 263.388 68.1378 264.338 68.1378Z" fill="#8AB4AE"/>
    <path d="M168.91 163.961V171.552" stroke="#6FC7BA" stroke-width="2.04344" stroke-linecap="round" stroke-linejoin="round"/>
    <path d="M165.119 167.765H172.684" stroke="#6FC7BA" stroke-width="2.04344" stroke-linecap="round" stroke-linejoin="round"/>
    <path d="M245.435 35.0994V42.6898" stroke="#6FC7BA" stroke-width="2.04344" stroke-linecap="round" stroke-linejoin="round"/>
    <path d="M241.644 38.8857H249.208" stroke="#6FC7BA" stroke-width="2.04344" stroke-linecap="round" stroke-linejoin="round"/>
    <path d="M158.695 24.4089V31.9994" stroke="#6FC7BA" stroke-width="2.04344" stroke-linecap="round" stroke-linejoin="round"/>
    <path d="M154.921 28.196H162.469" stroke="#6FC7BA" stroke-width="2.04344" stroke-linecap="round" stroke-linejoin="round"/>
    <path d="M115.22 81.2406C128.025 81.2406 138.406 70.8247 138.406 57.9761C138.406 45.1275 128.025 34.7117 115.22 34.7117C102.415 34.7117 92.0347 45.1275 92.0347 57.9761C92.0347 70.8247 102.415 81.2406 115.22 81.2406Z" fill="#35504C" stroke="#6FC7BA" stroke-width="2.04344" stroke-miterlimit="10"/>
    <path d="M115.22 74.9187C124.545 74.9187 132.104 67.3335 132.104 57.9767C132.104 48.6199 124.545 41.0347 115.22 41.0347C105.894 41.0347 98.335 48.6199 98.335 57.9767C98.335 67.3335 105.894 74.9187 115.22 74.9187Z" fill="#6FC7BA"/>
    <path d="M114.763 68.8602L114.658 66.1833C113.228 66.2333 111.813 65.8859 110.568 65.1795L111.13 63.4183C112.288 64.1167 113.624 64.4596 114.974 64.4046C116.852 64.4046 118.08 63.207 118.01 61.6924C117.94 60.1779 116.975 59.3501 114.904 58.6457C112.165 57.6947 110.463 56.5323 110.375 54.2253C110.35 53.1455 110.726 52.0949 111.43 51.2778C112.134 50.4608 113.115 49.9357 114.184 49.8048L114.079 47.1279H115.711L115.816 49.6992C117.034 49.6608 118.242 49.9335 119.327 50.4917L118.73 52.2528C117.703 51.6943 116.544 51.4265 115.377 51.4779C113.341 51.4779 112.622 52.8164 112.657 53.873C112.657 55.2467 113.71 55.8983 116.062 56.7613C118.818 57.7651 120.239 59.086 120.345 61.4459C120.367 62.5817 119.971 63.6858 119.233 64.547C118.494 65.4081 117.465 65.9657 116.343 66.1129L116.413 68.8602H114.763Z" fill="#2D333E"/>
    <path d="M226.111 132.648L139.967 154.345C138.26 154.773 136.478 154.805 134.757 154.439C133.035 154.073 131.419 153.318 130.032 152.231C128.645 151.145 127.522 149.755 126.75 148.169C125.978 146.582 125.576 144.84 125.575 143.074V49.8221L222.793 25.3425C223.797 25.0911 224.844 25.0723 225.855 25.2875C226.867 25.5026 227.816 25.9461 228.632 26.5843C229.447 27.2225 230.107 28.0387 230.561 28.9708C231.015 29.903 231.252 30.9267 231.253 31.9643V126.044C231.252 127.562 230.745 129.036 229.813 130.233C228.882 131.429 227.578 132.279 226.111 132.648Z" fill="#6FC7BA"/>
    <path d="M125.575 50.4387H247.225C249.027 50.4387 250.754 51.1568 252.028 52.4349C253.302 53.7131 254.018 55.4467 254.018 57.2543V151.756C254.018 153.564 253.302 155.297 252.028 156.576C250.754 157.854 249.027 158.572 247.225 158.572H133.754C131.585 158.572 129.505 157.707 127.971 156.168C126.437 154.629 125.575 152.542 125.575 150.365V50.4387Z" fill="#35504C" stroke="#6FC7BA" stroke-width="2.04344" stroke-miterlimit="10"/>
    <path d="M236.834 112.043C240.983 112.043 244.346 108.668 244.346 104.505C244.346 100.342 240.983 96.9678 236.834 96.9678C232.686 96.9678 229.322 100.342 229.322 104.505C229.322 108.668 232.686 112.043 236.834 112.043Z" fill="#6FC7BA"/>
  </g>
  <defs>
    <clipPath id="clip0_471_37050">
      <rect width="207" height="197" fill="white" transform="translate(72)"/>
    </clipPath>
  </defs>
</svg>
