<svg width="138" height="97" viewBox="0 0 138 97" fill="none" xmlns="http://www.w3.org/2000/svg">
<g opacity="0.4">
<path d="M127.189 41.2403C128.756 40.1886 129.174 38.0653 128.123 36.4978C127.071 34.9304 124.948 34.5123 123.38 35.564C121.813 36.6157 121.395 38.739 122.446 40.3064C123.498 41.8739 125.621 42.292 127.189 41.2403Z" fill="#2E5743"/>
<path d="M115.138 42.0405C117.148 42.0405 118.778 40.4108 118.778 38.4004C118.778 36.39 117.148 34.7603 115.138 34.7603C113.127 34.7603 111.498 36.39 111.498 38.4004C111.498 40.4108 113.127 42.0405 115.138 42.0405Z" fill="#2E5743"/>
<path d="M107.34 35.822C109.474 35.822 111.203 34.0928 111.203 31.9596C111.203 29.8264 109.474 28.0972 107.34 28.0972C105.207 28.0972 103.478 29.8264 103.478 31.9596C103.478 34.0928 105.207 35.822 107.34 35.822Z" fill="#2E5743"/>
<path d="M105.757 26.0963C107.985 26.0963 109.792 24.2899 109.792 22.0616C109.792 19.8333 107.985 18.0269 105.757 18.0269C103.529 18.0269 101.722 19.8333 101.722 22.0616C101.722 24.2899 103.529 26.0963 105.757 26.0963Z" fill="#2E5743"/>
<path d="M110.7 17.5658C113.004 17.5658 114.871 15.6985 114.871 13.395C114.871 11.0915 113.004 9.22412 110.7 9.22412C108.397 9.22412 106.529 11.0915 106.529 13.395C106.529 15.6985 108.397 17.5658 110.7 17.5658Z" fill="#2E5743"/>
<path d="M120.195 14.5148C122.706 14.5148 124.741 12.4795 124.741 9.96884C124.741 7.45816 122.706 5.42285 120.195 5.42285C117.684 5.42285 115.649 7.45816 115.649 9.96884C115.649 12.4795 117.684 14.5148 120.195 14.5148Z" fill="#2E5743"/>
<path d="M136.025 32.628C136.441 30.8531 135.34 29.0765 133.565 28.6598C131.79 28.2432 130.014 29.3443 129.597 31.1192C129.181 32.8942 130.282 34.6708 132.057 35.0874C133.831 35.504 135.608 34.4029 136.025 32.628Z" fill="#2E5743"/>
<path d="M134.586 25.0125C136.277 25.0125 137.648 23.6415 137.648 21.9503C137.648 20.2592 136.277 18.8882 134.586 18.8882C132.895 18.8882 131.524 20.2592 131.524 21.9503C131.524 23.6415 132.895 25.0125 134.586 25.0125Z" fill="#2E5743"/>
<path d="M129.493 16.0793C131.038 16.0793 132.291 14.8265 132.291 13.2811C132.291 11.7357 131.038 10.4829 129.493 10.4829C127.947 10.4829 126.694 11.7357 126.694 13.2811C126.694 14.8265 127.947 16.0793 129.493 16.0793Z" fill="#2E5743"/>
<path d="M32.2303 10.9356C32.5403 10.8672 32.8595 10.8503 33.175 10.8856C33.9123 10.9574 34.613 11.2408 35.1928 11.7018C35.7726 12.1628 36.2067 12.7816 36.4428 13.4837C36.6662 14.1451 36.7074 14.8544 36.5623 15.5372C36.3982 16.2955 36.0111 16.9874 35.4508 17.524C34.854 18.1059 34.0861 18.4808 33.2601 18.5934C32.4342 18.706 31.5939 18.5502 30.8631 18.1492C30.1829 17.7773 29.6286 17.2115 29.2709 16.5236C28.9494 15.9038 28.8007 15.2089 28.8402 14.5118C28.874 13.9069 29.0502 13.3186 29.3543 12.7946C29.7897 12.0301 30.4773 11.4407 31.2994 11.1273C31.5928 11.0098 31.9035 10.9413 32.2192 10.9245C32.2192 10.9523 31.8857 10.9773 31.33 11.2024C30.5468 11.5366 29.8982 12.1236 29.4877 12.8696C29.1854 13.4129 29.0238 14.0231 29.0175 14.6448C29.0112 15.2665 29.1604 15.8798 29.4516 16.4292C29.6161 16.7456 29.8278 17.0351 30.0795 17.2878C30.3413 17.5569 30.6454 17.7813 30.9799 17.9519C31.6708 18.3288 32.4641 18.4749 33.244 18.369C34.0238 18.263 34.7494 17.9104 35.3147 17.3628C35.8439 16.8558 36.2105 16.203 36.3678 15.4872C36.509 14.8419 36.4764 14.1706 36.2733 13.5421C36.0954 12.9905 35.7898 12.4888 35.3814 12.0777C34.7869 11.4671 34.0035 11.0754 33.1584 10.9662C32.8497 10.9405 32.54 10.9303 32.2303 10.9356Z" fill="#2E5743"/>
<path d="M33.6783 6.0507C33.6783 6.0507 33.6588 6.0118 33.6255 5.92566L33.4754 5.55053C33.3393 5.20319 33.1475 4.70024 32.8947 4.0528L32.9336 4.07503L29.4157 4.57242L29.463 4.5224C29.4102 5.16984 29.349 5.88953 29.2851 6.65924V6.69814L29.249 6.71481C28.5395 7.01136 27.8731 7.40204 27.2678 7.87632L27.2344 7.9041L27.1927 7.88465L25.2476 7.00102L25.3421 6.97601L23.1997 9.80753V9.70194L24.5891 11.3442L24.6252 11.3858L24.603 11.4359C24.3122 12.148 24.1169 12.8955 24.0222 13.6588V13.7172L23.9666 13.7366L21.9576 14.4897L22.0215 14.3869C22.1716 15.4984 22.3355 16.6849 22.5023 17.9047L22.4106 17.8186L24.5474 18.0048H24.6113L24.6363 18.0631C24.9314 18.769 25.3192 19.4325 25.7895 20.036L25.8284 20.086L25.8006 20.1444C25.5227 20.7585 25.2199 21.4254 24.9114 22.0895L24.8808 21.9589L27.7068 24.1096H27.5707L29.2157 22.7203L29.2657 22.6786L29.3268 22.7036C30.0342 22.9947 30.777 23.1909 31.5359 23.2871C31.5748 23.3177 31.447 23.2176 31.6248 23.3594V23.3927L31.6498 23.4538L31.6971 23.5817L31.7915 23.8345L31.9777 24.3375C32.1055 24.6737 32.2278 25.0071 32.3528 25.3406L32.2361 25.2711L35.7568 24.7932L35.6623 24.8904C35.7253 24.1717 35.7883 23.4594 35.8512 22.7536V22.6897L35.9124 22.6647C36.619 22.3706 37.2834 21.9837 37.888 21.5143L37.9381 21.4754L37.9964 21.5004L39.9415 22.3924L39.8165 22.4257L41.97 19.5998V19.7276C41.5032 19.1718 41.0419 18.6161 40.5806 18.0798L40.5417 18.0326L40.5667 17.9798C40.8596 17.2679 41.0567 16.5204 41.153 15.7568V15.7012L41.2058 15.6818L43.2176 14.9343L43.1593 15.0315C42.9926 13.7922 42.837 12.6224 42.6897 11.5109L42.7647 11.5831L40.6279 11.3886H40.5806L40.5612 11.3469C40.2777 10.6563 39.906 10.0053 39.4552 9.41017L39.4302 9.37405L39.4469 9.33515C39.772 8.62657 40.0666 7.99025 40.3444 7.39004L40.3639 7.46785L37.5463 5.30322H37.6074L35.9402 6.67035H35.9235H35.904C35.366 6.44545 34.8077 6.27238 34.2368 6.15351L33.8144 6.07571L33.6727 6.04792C33.7208 6.04413 33.7691 6.04413 33.8172 6.04792C33.9117 6.04792 34.0534 6.07571 34.2451 6.11183C34.8165 6.21461 35.3754 6.37761 35.9124 6.59811H35.8763C36.3236 6.21742 36.8571 5.76449 37.5129 5.20874L37.5407 5.18374L37.5741 5.20597L40.4083 7.34558L40.45 7.37615L40.4278 7.42339C40.1499 8.02915 39.8721 8.66825 39.5442 9.36849V9.29347C40.026 9.90929 40.4231 10.5868 40.7251 11.308L40.6612 11.2608L42.7981 11.4442H42.8647V11.5109C43.0176 12.6224 43.176 13.7894 43.3482 15.0288V15.101L43.2815 15.126L41.2725 15.879L41.3337 15.804C41.2358 16.5818 41.0359 17.3432 40.739 18.0687L40.7223 17.9686C41.1762 18.504 41.6393 19.0514 42.1117 19.6109L42.1645 19.672L42.1145 19.7359L39.9665 22.5646L39.9165 22.6313L39.8415 22.5952L37.8964 21.7088H38.0048C37.3849 22.1906 36.7037 22.5877 35.9791 22.8898L36.0458 22.8008C35.9846 23.5066 35.9207 24.218 35.8596 24.9377V25.0238H35.7734L32.2556 25.5045H32.1694L32.1389 25.4212L31.7637 24.4208L31.5748 23.9151L31.4803 23.6622L31.4331 23.5372L31.4081 23.4733V23.4427V23.4261C31.5859 23.5678 31.4581 23.465 31.497 23.4955C30.7189 23.3977 29.9574 23.1968 29.2323 22.8981L29.3463 22.8814L27.6985 24.2708L27.6318 24.3264L27.5651 24.2736L24.728 22.1367L24.6586 22.0867L24.6947 22.0089L25.5866 20.0638L25.6005 20.1722C25.1196 19.5522 24.7234 18.871 24.4224 18.1465L24.5085 18.2104L22.3717 18.0214H22.2911V17.9409C22.1244 16.7182 21.966 15.5261 21.8159 14.4202V14.3424L21.8882 14.3174L23.8972 13.5671L23.8388 13.6449C23.936 12.8674 24.1379 12.1065 24.439 11.3831V11.4748L23.0608 9.81031L23.0163 9.75751L23.058 9.70472C23.8009 8.7192 24.5168 7.77906 25.206 6.88431L25.2421 6.8343L25.3004 6.85931L27.2455 7.75406H27.1705C27.7882 7.27507 28.4677 6.88158 29.1906 6.58421L29.1517 6.63701C29.2212 5.8673 29.2879 5.14761 29.349 4.50017V4.45571H29.3935L32.9141 4H32.9419V4.02501L33.481 5.52274C33.5393 5.68668 33.5838 5.80061 33.6172 5.91176C33.6425 5.95574 33.663 6.00232 33.6783 6.0507Z" fill="#2E5743"/>
<path fill-rule="evenodd" clip-rule="evenodd" d="M16.6696 26.5662C17.757 26.702 18.8214 26.9823 19.8345 27.3998L22.1603 25.4547L26.1645 28.5113L24.9057 31.2706C25.5779 32.1368 26.1328 33.088 26.5563 34.0993L29.5767 34.3772L30.252 39.3484L27.4093 40.4098C27.2749 41.4975 26.9945 42.5621 26.5757 43.5748L28.5208 45.9006L25.4809 49.8964L22.7188 48.6376C21.8537 49.3114 20.9023 49.8665 19.8901 50.2882L19.6122 53.3087L14.6355 53.9839L13.5741 51.1413C12.4867 51.0052 11.4224 50.7249 10.4091 50.3076L8.0833 52.2527L4.0875 49.2128L5.34626 46.4508C4.67337 45.5855 4.1192 44.6342 3.69848 43.622L0.67523 43.3442L0 38.3675L2.84263 37.306C2.9774 36.2184 3.25779 35.1539 3.67625 34.141L1.73114 31.8152L4.77107 27.8194L7.53312 29.0782C8.39876 28.4059 9.35002 27.8518 10.3619 27.4304L10.6397 24.4072L15.6164 23.7319L16.6696 26.5662ZM14.6272 33.4741C13.571 33.6168 12.5809 34.0695 11.7821 34.775C10.9832 35.4804 10.4115 36.4069 10.1393 37.4373C9.86707 38.4677 9.90654 39.5557 10.2527 40.5637C10.5989 41.5716 11.2362 42.4543 12.0841 43.1C12.9319 43.7457 13.9523 44.1255 15.016 44.1912C16.0797 44.257 17.139 44.0059 18.06 43.4695C18.9809 42.9332 19.7221 42.1358 20.1899 41.1781C20.6576 40.2205 20.8308 39.1457 20.6876 38.0896C20.4936 36.6772 19.7477 35.3993 18.6133 34.5358C17.479 33.6722 16.0486 33.2935 14.6355 33.4825L14.6272 33.4741Z" fill="#2E5743"/>
</g>
<path d="M117.829 22.1255H21.4363C20.9971 22.1326 20.5786 22.3132 20.2723 22.628C19.9659 22.9427 19.7966 23.3659 19.8014 23.8051V73.1189C19.7954 73.5589 19.9642 73.9833 20.2707 74.299C20.5771 74.6147 20.9963 74.796 21.4363 74.8031H24.688V83.8999L33.5385 74.8031H117.829C118.047 74.8001 118.262 74.7542 118.462 74.6679C118.663 74.5817 118.844 74.4567 118.996 74.3003C119.148 74.1438 119.267 73.959 119.347 73.7562C119.428 73.5535 119.467 73.337 119.464 73.1189V23.8051C119.467 23.5875 119.427 23.3714 119.346 23.1692C119.266 22.967 119.146 22.7826 118.994 22.6267C118.842 22.4707 118.661 22.3462 118.461 22.2602C118.261 22.1742 118.047 22.1284 117.829 22.1255Z" fill="#D1E0DD"/>
<path d="M21.7546 22.1255H117.511C117.768 22.1255 118.023 22.1761 118.26 22.2745C118.498 22.3729 118.714 22.517 118.895 22.6988C119.077 22.8805 119.221 23.0963 119.32 23.3338C119.418 23.5713 119.469 23.8258 119.469 24.0828V31.2985H19.8018V24.0783C19.8029 23.5608 20.0091 23.0647 20.375 22.6988C20.741 22.3328 21.237 22.1267 21.7546 22.1255Z" fill="#4D6871"/>
<path d="M25.9514 26.8598C25.9452 27.1075 25.8661 27.3478 25.7239 27.5507C25.5817 27.7536 25.3828 27.9101 25.152 28.0004C24.9213 28.0907 24.6691 28.111 24.4269 28.0585C24.1848 28.0061 23.9635 27.8834 23.7908 27.7058C23.6181 27.5281 23.5016 27.3035 23.456 27.0599C23.4105 26.8164 23.4378 26.5648 23.5346 26.3367C23.6314 26.1086 23.7934 25.9142 24.0002 25.7778C24.207 25.6414 24.4495 25.569 24.6973 25.5698C25.0343 25.5757 25.3552 25.7147 25.5902 25.9563C25.8251 26.198 25.955 26.5228 25.9514 26.8598Z" fill="white"/>
<path d="M29.9826 26.8598C29.9765 27.1075 29.8973 27.3478 29.7551 27.5507C29.6129 27.7536 29.414 27.9101 29.1833 28.0004C28.9526 28.0907 28.7003 28.111 28.4582 28.0585C28.216 28.0061 27.9947 27.8834 27.822 27.7058C27.6493 27.5281 27.5329 27.3035 27.4873 27.0599C27.4417 26.8164 27.469 26.5648 27.5658 26.3367C27.6626 26.1086 27.8246 25.9142 28.0314 25.7778C28.2383 25.6414 28.4807 25.569 28.7285 25.5698C29.0655 25.5757 29.3865 25.7147 29.6214 25.9563C29.8564 26.198 29.9862 26.5228 29.9826 26.8598Z" fill="white"/>
<path d="M34.1706 26.8598C34.1644 27.1075 34.0853 27.3478 33.9431 27.5507C33.8009 27.7536 33.602 27.9101 33.3713 28.0004C33.1406 28.0907 32.8883 28.111 32.6462 28.0585C32.404 28.0061 32.1827 27.8834 32.01 27.7058C31.8373 27.5281 31.7208 27.3035 31.6753 27.0599C31.6297 26.8164 31.657 26.5648 31.7538 26.3367C31.8506 26.1086 32.0126 25.9142 32.2194 25.7778C32.4262 25.6414 32.6687 25.569 32.9165 25.5698C33.0835 25.5722 33.2485 25.6074 33.4019 25.6735C33.5554 25.7396 33.6943 25.8352 33.8107 25.955C33.9272 26.0748 34.0189 26.2164 34.0807 26.3716C34.1424 26.5269 34.173 26.6927 34.1706 26.8598Z" fill="white"/>
<path d="M64.2691 26.4876C64.2691 27.0698 63.8436 27.4281 63.1672 27.4281H62.679V28.1493H62.0923V25.5425H63.1896C63.8436 25.5425 64.2691 25.9053 64.2691 26.4876ZM63.6734 26.4876C63.6734 26.2009 63.4942 26.0397 63.1359 26.0397H62.679V26.9355H63.1269C63.4942 26.9399 63.6734 26.7697 63.6734 26.4876Z" fill="#6FC7BA"/>
<path d="M65.8549 26.116V26.6535H65.725C65.416 26.6535 65.2099 26.8282 65.2099 27.2134V28.1585H64.6411V26.1563H65.1831V26.4206C65.2612 26.3183 65.3634 26.2369 65.4807 26.1838C65.5979 26.1306 65.7265 26.1074 65.8549 26.116Z" fill="#6FC7BA"/>
<path d="M66.0252 27.1464C66.0171 26.9332 66.073 26.7224 66.1857 26.5411C66.2983 26.3599 66.4625 26.2164 66.6573 26.1292C66.852 26.0419 67.0685 26.0149 67.2787 26.0515C67.4889 26.0882 67.6834 26.1868 67.8372 26.3348C67.991 26.4828 68.097 26.6733 68.1417 26.882C68.1863 27.0907 68.1676 27.308 68.0879 27.5059C68.0082 27.7039 67.8712 27.8735 67.6944 27.993C67.5176 28.1125 67.3091 28.1765 67.0956 28.1766C66.9565 28.184 66.8174 28.1627 66.6869 28.1141C66.5563 28.0654 66.4372 27.9905 66.3368 27.8939C66.2364 27.7973 66.1569 27.6811 66.1033 27.5525C66.0497 27.424 66.0231 27.2857 66.0252 27.1464ZM67.5928 27.1464C67.6024 27.0756 67.5966 27.0034 67.576 26.935C67.5554 26.8665 67.5204 26.8032 67.4733 26.7493C67.4262 26.6955 67.3681 26.6523 67.303 26.6228C67.2379 26.5932 67.1672 26.5779 67.0956 26.5779C67.0241 26.5779 66.9534 26.5932 66.8883 26.6228C66.8232 26.6523 66.7651 26.6955 66.718 26.7493C66.6709 26.8032 66.6359 26.8665 66.6153 26.935C66.5947 27.0034 66.5889 27.0756 66.5985 27.1464C66.5889 27.2173 66.5947 27.2894 66.6153 27.3579C66.6359 27.4264 66.6709 27.4897 66.718 27.5436C66.7651 27.5974 66.8232 27.6405 66.8883 27.6701C66.9534 27.6997 67.0241 27.715 67.0956 27.715C67.1672 27.715 67.2379 27.6997 67.303 27.6701C67.3681 27.6405 67.4262 27.5974 67.4733 27.5436C67.5204 27.4897 67.5554 27.4264 67.576 27.3579C67.5966 27.2894 67.6024 27.2173 67.5928 27.1464Z" fill="#6FC7BA"/>
<path d="M68.3942 27.1462C68.3926 27.0055 68.4202 26.866 68.4751 26.7364C68.53 26.6069 68.6111 26.4901 68.7133 26.3934C68.8155 26.2966 68.9366 26.2221 69.069 26.1743C69.2013 26.1266 69.3422 26.1068 69.4826 26.116C69.6626 26.1032 69.8424 26.1451 69.9982 26.2362C70.1541 26.3273 70.2788 26.4634 70.356 26.6266L69.9081 26.8685C69.8676 26.7847 69.8038 26.7144 69.7244 26.6659C69.6449 26.6174 69.5532 26.5929 69.4602 26.5953C69.3221 26.6077 69.1936 26.6714 69.1 26.7737C69.0065 26.8761 68.9546 27.0098 68.9546 27.1484C68.9546 27.2871 69.0065 27.4208 69.1 27.5231C69.1936 27.6255 69.3221 27.6892 69.4602 27.7016C69.5534 27.7051 69.6456 27.6811 69.7253 27.6325C69.8049 27.5839 69.8685 27.5129 69.9081 27.4284L70.356 27.6702C70.2781 27.8326 70.1531 27.9678 69.9973 28.058C69.8415 28.1483 69.6621 28.1896 69.4826 28.1764C69.342 28.1863 69.2009 28.1669 69.0682 28.1195C68.9356 28.072 68.8142 27.9975 68.7119 27.9006C68.6095 27.8037 68.5284 27.6866 68.4737 27.5568C68.419 27.4269 68.392 27.2871 68.3942 27.1462Z" fill="#6FC7BA"/>
<path d="M72.5329 27.3118H71.0593C71.0881 27.4351 71.1608 27.5436 71.2639 27.617C71.367 27.6904 71.4933 27.7236 71.6192 27.7105C71.7095 27.7141 71.7996 27.6989 71.8836 27.6657C71.9677 27.6325 72.0439 27.5822 72.1074 27.5179L72.4075 27.8538C72.3057 27.9643 72.1804 28.0505 72.0409 28.1063C71.9014 28.1621 71.7512 28.186 71.6013 28.1763C71.4591 28.1888 71.3158 28.1714 71.1808 28.1252C71.0457 28.0789 70.9219 28.0049 70.8172 27.9078C70.7125 27.8107 70.6294 27.6928 70.5731 27.5616C70.5168 27.4304 70.4887 27.2889 70.4905 27.1461C70.4874 27.0092 70.5122 26.8731 70.5634 26.7462C70.6147 26.6192 70.6913 26.504 70.7885 26.4076C70.8857 26.3111 71.0016 26.2356 71.129 26.1854C71.2565 26.1353 71.3928 26.1117 71.5296 26.116C71.6665 26.1107 71.8029 26.1342 71.9301 26.1848C72.0574 26.2355 72.1726 26.3122 72.2683 26.4101C72.3641 26.508 72.4383 26.6249 72.4862 26.7532C72.5341 26.8815 72.5546 27.0184 72.5464 27.1551C72.5643 27.1999 72.5553 27.2626 72.5329 27.3118ZM71.0549 26.9714H72.0134C72.0094 26.9126 71.9938 26.8551 71.9675 26.8022C71.9413 26.7494 71.9048 26.7023 71.8603 26.6636C71.8158 26.6249 71.764 26.5953 71.708 26.5767C71.6521 26.558 71.5929 26.5506 71.5341 26.5549C71.416 26.5513 71.3013 26.5944 71.2149 26.6749C71.1285 26.7555 71.0774 26.8669 71.0728 26.9849L71.0549 26.9714Z" fill="#6FC7BA"/>
<path d="M72.748 27.9613L72.9362 27.5448C73.141 27.6705 73.3766 27.7372 73.617 27.7374C73.8768 27.7374 73.9753 27.6657 73.9753 27.5582C73.9753 27.2313 72.7973 27.5582 72.7973 26.7655C72.7973 26.3847 73.1288 26.116 73.6931 26.116C73.9545 26.1111 74.2131 26.1711 74.4456 26.2907L74.2575 26.7027C74.0853 26.6055 73.8909 26.5545 73.6931 26.5549C73.4423 26.5549 73.3303 26.64 73.3303 26.7431C73.3303 27.0835 74.5083 26.7431 74.5083 27.5403C74.5083 27.9121 74.1724 28.1763 73.5901 28.1763C73.2954 28.1802 73.0049 28.106 72.748 27.9613Z" fill="#6FC7BA"/>
<path d="M74.6694 27.9613L74.8576 27.5448C75.0624 27.6705 75.298 27.7372 75.5384 27.7374C75.7981 27.7374 75.8967 27.6657 75.8967 27.5582C75.8967 27.2313 74.7187 27.5582 74.7187 26.7655C74.7187 26.3847 75.0502 26.116 75.6145 26.116C75.8759 26.1111 76.1345 26.1711 76.367 26.2907L76.1789 26.7027C76.0067 26.6055 75.8123 26.5545 75.6145 26.5549C75.3637 26.5549 75.2517 26.64 75.2517 26.7431C75.2517 27.0835 76.4297 26.7431 76.4297 27.5403C76.4297 27.9121 76.0938 28.1763 75.5339 28.1763C75.2316 28.1842 74.9328 28.1099 74.6694 27.9613Z" fill="#6FC7BA"/>
<path d="M76.6445 27.8137C76.6445 27.7211 76.6813 27.6322 76.7469 27.5667C76.8124 27.5012 76.9012 27.4644 76.9939 27.4644C77.0865 27.4644 77.1754 27.5012 77.2409 27.5667C77.3064 27.6322 77.3433 27.7211 77.3433 27.8137C77.3433 27.9064 77.3064 27.9952 77.2409 28.0608C77.1754 28.1263 77.0865 28.1631 76.9939 28.1631C76.9012 28.1631 76.8124 28.1263 76.7469 28.0608C76.6813 27.9952 76.6445 27.9064 76.6445 27.8137Z" fill="#6FC7BA"/>
<path d="M77.5896 27.8135C77.584 27.764 77.589 27.7139 77.6041 27.6664C77.6192 27.6189 77.6442 27.5752 77.6774 27.538C77.7105 27.5009 77.7512 27.4712 77.7967 27.4508C77.8422 27.4304 77.8914 27.4199 77.9412 27.4199C77.9911 27.4199 78.0403 27.4304 78.0858 27.4508C78.1313 27.4712 78.1719 27.5009 78.2051 27.538C78.2383 27.5752 78.2633 27.6189 78.2784 27.6664C78.2935 27.7139 78.2984 27.764 78.2928 27.8135C78.2984 27.863 78.2935 27.9131 78.2784 27.9606C78.2633 28.0081 78.2383 28.0518 78.2051 28.089C78.1719 28.1261 78.1313 28.1559 78.0858 28.1762C78.0403 28.1966 77.9911 28.2071 77.9412 28.2071C77.8914 28.2071 77.8422 28.1966 77.7967 28.1762C77.7512 28.1559 77.7105 28.1261 77.6774 28.089C77.6442 28.0518 77.6192 28.0081 77.6041 27.9606C77.589 27.9131 77.584 27.863 77.5896 27.8135Z" fill="#6FC7BA"/>
<path d="M78.5394 27.8135C78.5338 27.764 78.5387 27.7139 78.5538 27.6664C78.5689 27.6189 78.5939 27.5752 78.6271 27.538C78.6603 27.5009 78.7009 27.4712 78.7464 27.4508C78.7919 27.4304 78.8411 27.4199 78.891 27.4199C78.9408 27.4199 78.99 27.4304 79.0355 27.4508C79.081 27.4712 79.1216 27.5009 79.1548 27.538C79.188 27.5752 79.213 27.6189 79.2281 27.6664C79.2432 27.7139 79.2482 27.764 79.2426 27.8135C79.2482 27.863 79.2432 27.9131 79.2281 27.9606C79.213 28.0081 79.188 28.0518 79.1548 28.089C79.1216 28.1261 79.081 28.1559 79.0355 28.1762C78.99 28.1966 78.9408 28.2071 78.891 28.2071C78.8411 28.2071 78.7919 28.1966 78.7464 28.1762C78.7009 28.1559 78.6603 28.1261 78.6271 28.089C78.5939 28.0518 78.5689 28.0081 78.5538 27.9606C78.5387 27.9131 78.5338 27.863 78.5394 27.8135Z" fill="#6FC7BA"/>
<path d="M117.829 74.7983C118.099 74.7877 118.363 74.714 118.6 74.5833C118.84 74.4467 119.042 74.2523 119.189 74.0176C119.335 73.783 119.42 73.5156 119.437 73.2396C119.437 73.0112 119.437 72.7648 119.437 72.5006C119.437 70.3999 119.437 67.3094 119.415 63.332C119.415 55.3639 119.392 43.8394 119.379 29.6007C119.379 27.8091 119.379 25.9876 119.379 24.1363C119.389 23.9089 119.379 23.681 119.348 23.4555C119.301 23.236 119.21 23.0285 119.079 22.8463C118.951 22.6621 118.784 22.5084 118.589 22.3962C118.395 22.2839 118.178 22.2159 117.955 22.1969C117.019 22.1969 116.047 22.1969 115.079 22.1969H102.963H76.2327H22.0681C21.7421 22.1782 21.4151 22.1917 21.0917 22.2372C20.7846 22.3165 20.509 22.4877 20.3017 22.7278C20.0944 22.9679 19.9653 23.2655 19.9316 23.5809C19.9048 24.9022 19.9316 26.2683 19.9316 27.612V54.0381C19.9316 58.3245 19.9316 62.5482 19.9316 66.7003V72.8723C19.9071 73.1104 19.9344 73.351 20.0117 73.5776C20.089 73.8041 20.2145 74.0112 20.3795 74.1847C20.546 74.3538 20.7501 74.4812 20.9752 74.5564C21.2051 74.6294 21.447 74.6567 21.6874 74.637H24.8227V83.8459L24.6346 83.7697L33.4941 74.6774L33.5209 74.646H33.5657L94.5698 74.6863L111.756 74.7177L94.5698 74.7445L33.5657 74.7893L33.6419 74.758L24.7914 83.8548L24.6077 84.0474V83.7832C24.6077 80.7972 24.6077 77.7649 24.6077 74.6863L24.7197 74.7938H21.7098C21.4453 74.8106 21.1799 74.7802 20.926 74.7042C20.6676 74.6092 20.4347 74.4559 20.2452 74.2563C20.0578 74.0632 19.9141 73.8321 19.8237 73.5786C19.7333 73.3252 19.6983 73.0553 19.7211 72.7872V66.7495C19.7211 62.602 19.7211 58.3738 19.7211 54.0874V27.6613C19.7211 26.3176 19.7211 24.9739 19.7211 23.5854C19.7638 23.2246 19.9152 22.8853 20.1552 22.6125C20.3952 22.3397 20.7124 22.1463 21.0648 22.058C21.4054 22.0044 21.7508 21.9879 22.095 22.0088H46.7295H76.2909H103.022L115.084 22.058C116.056 22.058 117.01 22.058 117.973 22.058C118.222 22.0786 118.464 22.1544 118.681 22.2799C118.898 22.4054 119.084 22.5774 119.227 22.7836C119.371 22.9848 119.471 23.2135 119.522 23.4555C119.556 23.6928 119.568 23.9326 119.558 24.1721C119.558 26.0354 119.558 27.8568 119.558 29.6365C119.558 43.8753 119.527 55.3997 119.518 63.3679C119.518 67.3452 119.518 70.4357 119.518 72.5364C119.518 72.8007 119.518 73.0425 119.518 73.2799C119.5 73.4968 119.441 73.7082 119.343 73.9025C119.189 74.2041 118.949 74.4534 118.653 74.6191C118.474 74.7161 118.278 74.7784 118.076 74.8028C117.993 74.8084 117.911 74.8069 117.829 74.7983Z" fill="#263238"/>
<path d="M109.991 45.1025H30.4079C28.2162 45.1025 26.4395 46.8793 26.4395 49.0709V49.7338C26.4395 51.9255 28.2162 53.7022 30.4079 53.7022H109.991C112.182 53.7022 113.959 51.9255 113.959 49.7338V49.0709C113.959 46.8793 112.182 45.1025 109.991 45.1025Z" fill="white"/>
<path d="M109.987 53.7021H110.108C110.188 53.7021 110.309 53.7021 110.462 53.6708C110.931 53.6104 111.386 53.4678 111.805 53.2498C112.109 53.0921 112.391 52.8948 112.643 52.663C113.311 52.0562 113.748 51.2361 113.879 50.3429C113.904 50.2144 113.917 50.084 113.919 49.9532C113.919 49.8188 113.919 49.6845 113.919 49.5456C113.919 49.2679 113.919 48.9857 113.897 48.6946C113.828 48.0532 113.604 47.4384 113.243 46.9036C112.883 46.3688 112.397 45.9304 111.828 45.6265C111.509 45.4618 111.17 45.3384 110.82 45.2592C110.451 45.1898 110.075 45.1613 109.7 45.1741H107.286H95.9675L30.4307 45.2189C29.6499 45.2188 28.8876 45.4562 28.2449 45.8997C27.6072 46.3425 27.1172 46.9667 26.8385 47.6913C26.5909 48.4241 26.5053 49.202 26.5877 49.9711C26.6265 50.7352 26.8968 51.4694 27.3626 52.0763C27.8207 52.6764 28.443 53.1307 29.1542 53.3841C29.8824 53.5859 30.6404 53.6587 31.3937 53.5991H53.3408L82.8082 53.626L102.677 53.6618L82.8082 53.6977H53.3408H35.9354H31.3982C31.013 53.6977 30.6323 53.6977 30.2381 53.6977C29.8407 53.6872 29.4475 53.6131 29.0736 53.4782C28.3105 53.2149 27.6429 52.7307 27.1556 52.0871C26.6683 51.4435 26.3833 50.6696 26.3369 49.8636C26.3167 49.4668 26.3167 49.0691 26.3369 48.6722C26.3645 48.2655 26.4536 47.8653 26.6012 47.4853C26.8995 46.7198 27.4207 46.0614 28.0971 45.5951C28.4386 45.3673 28.8092 45.1865 29.199 45.0577C29.5936 44.9429 30.0018 44.8811 30.4128 44.874L95.963 44.9099H107.281H109.709C110.092 44.8983 110.475 44.9298 110.851 45.0039C111.212 45.0868 111.561 45.2147 111.89 45.3846C112.474 45.6977 112.971 46.1495 113.338 46.7002C113.705 47.251 113.931 47.8836 113.995 48.5423C113.995 48.8424 113.995 49.1291 113.995 49.4023C113.995 49.5411 113.995 49.68 113.995 49.8144C113.993 49.9481 113.98 50.0815 113.955 50.213C113.88 50.6979 113.714 51.1643 113.467 51.588C113.26 51.9534 112.993 52.2819 112.679 52.56C112.42 52.7953 112.131 52.9942 111.819 53.1512C111.398 53.3633 110.943 53.4983 110.475 53.5499C110.316 53.6114 110.153 53.6623 109.987 53.7021Z" fill="#083C35"/>
<path d="M105.266 50.0118C105.265 50.1301 105.24 50.2469 105.192 50.3549C105.143 50.463 105.073 50.5598 104.986 50.6394C104.898 50.7189 104.795 50.7794 104.683 50.8171C104.571 50.8548 104.452 50.8688 104.334 50.8583C103.644 50.8583 103.237 50.4104 103.237 49.5639C103.237 48.7173 103.747 48.1799 104.482 48.1799C104.715 48.1723 104.947 48.2297 105.149 48.3456L104.975 48.7129C104.83 48.6215 104.662 48.5762 104.491 48.583C104.012 48.583 103.712 48.8875 103.712 49.4788C103.799 49.3869 103.905 49.3152 104.022 49.2688C104.14 49.2224 104.266 49.2023 104.392 49.21C104.504 49.1993 104.616 49.2122 104.722 49.2477C104.828 49.2833 104.925 49.3407 105.008 49.4163C105.09 49.4919 105.156 49.584 105.2 49.6866C105.245 49.7892 105.267 49.9 105.266 50.0118ZM104.818 50.0342C104.818 49.7609 104.616 49.5863 104.307 49.5863C104.243 49.5765 104.178 49.5808 104.115 49.5989C104.053 49.6171 103.995 49.6485 103.946 49.6911C103.897 49.7337 103.858 49.7865 103.831 49.8457C103.805 49.9049 103.791 49.9692 103.792 50.0342C103.792 50.2805 103.98 50.4821 104.321 50.4821C104.383 50.4883 104.446 50.4814 104.506 50.4617C104.566 50.4421 104.62 50.4101 104.667 50.3678C104.713 50.3256 104.75 50.2741 104.776 50.2166C104.801 50.1591 104.814 50.097 104.813 50.0342H104.818Z" fill="#263238"/>
<path d="M105.512 49.519C105.512 48.6635 105.96 48.1753 106.569 48.1753C107.178 48.1753 107.631 48.659 107.631 49.519C107.631 50.379 107.183 50.8627 106.569 50.8627C105.956 50.8627 105.512 50.3745 105.512 49.519ZM107.156 49.519C107.156 48.8875 106.919 48.6008 106.569 48.6008C106.22 48.6008 105.987 48.8875 105.987 49.519C105.987 50.1505 106.224 50.4372 106.569 50.4372C106.914 50.4372 107.156 50.1461 107.156 49.519Z" fill="#263238"/>
<path d="M107.917 48.9051C107.917 48.4572 108.159 48.1885 108.522 48.1885C108.885 48.1885 109.131 48.4707 109.131 48.9051C109.144 48.9924 109.138 49.0814 109.114 49.1662C109.089 49.251 109.047 49.3294 108.989 49.3963C108.931 49.4631 108.86 49.5167 108.78 49.5535C108.7 49.5903 108.613 49.6093 108.524 49.6093C108.436 49.6093 108.349 49.5903 108.269 49.5535C108.188 49.5167 108.117 49.4631 108.059 49.3963C108.002 49.3294 107.959 49.251 107.935 49.1662C107.91 49.0814 107.904 48.9924 107.917 48.9051ZM108.813 48.9051C108.813 48.614 108.697 48.4572 108.504 48.4572C108.312 48.4572 108.191 48.6274 108.191 48.9051C108.191 49.1828 108.316 49.353 108.504 49.353C108.692 49.353 108.813 49.1918 108.813 48.9051ZM110.022 48.2153H110.381L108.647 50.8177H108.294L110.022 48.2153ZM109.575 50.1324C109.575 49.6845 109.816 49.4157 110.179 49.4157C110.326 49.391 110.476 49.4118 110.611 49.4754C110.745 49.539 110.857 49.6424 110.93 49.7715C111.004 49.9006 111.036 50.0492 111.023 50.1972C111.009 50.3452 110.951 50.4855 110.855 50.5991C110.759 50.7127 110.63 50.7941 110.487 50.8324C110.343 50.8706 110.191 50.8638 110.052 50.8129C109.912 50.762 109.791 50.6694 109.706 50.5477C109.621 50.426 109.575 50.281 109.575 50.1324ZM110.493 50.1324C110.493 49.8457 110.372 49.6845 110.179 49.6845C109.987 49.6845 109.866 49.8502 109.866 50.1324C109.866 50.4145 109.987 50.5803 110.179 50.5803C110.372 50.5803 110.488 50.419 110.488 50.1324H110.493Z" fill="#263238"/>
<path d="M69.9799 46.1372H30.5781C28.9059 46.1372 27.5503 47.4928 27.5503 49.165V49.6667C27.5503 51.3389 28.9059 52.6945 30.5781 52.6945H69.9799C71.6521 52.6945 73.0077 51.3389 73.0077 49.6667V49.165C73.0077 47.4928 71.6521 46.1372 69.9799 46.1372Z" fill="#6FC7BA"/>
<g opacity="0.2">
<path d="M30.189 52.6945L34.0946 46.1372H36.1819L32.3299 52.6945H30.189Z" fill="white"/>
</g>
<g opacity="0.2">
<path d="M35.353 52.6945L39.2542 46.1372H41.3415L37.494 52.6945H35.353Z" fill="white"/>
</g>
<g opacity="0.2">
<path d="M40.5127 52.6945L44.4184 46.1372H46.5056L42.6581 52.6945H40.5127Z" fill="white"/>
</g>
<g opacity="0.2">
<path d="M45.6772 52.6945L49.5829 46.1372H51.6657L47.8182 52.6945H45.6772Z" fill="white"/>
</g>
<g opacity="0.2">
<path d="M50.8364 52.6945L54.7421 46.1372H56.8293L52.9819 52.6945H50.8364Z" fill="white"/>
</g>
<g opacity="0.2">
<path d="M56.001 52.6945L59.9067 46.1372H61.9894L58.1419 52.6945H56.001Z" fill="white"/>
</g>
<g opacity="0.2">
<path d="M61.1655 52.6945L65.0667 46.1372H67.154L63.3065 52.6945H61.1655Z" fill="white"/>
</g>
<g opacity="0.2">
<path d="M66.3252 52.6944L70.2085 46.1641C70.8243 46.2353 71.4031 46.495 71.8657 46.9076L68.4662 52.6944H66.3252Z" fill="white"/>
</g>
<path d="M97.8932 57.2541C97.8932 57.3169 85.7506 57.3706 70.7728 57.3706C55.795 57.3706 43.6479 57.3169 43.6479 57.2541C43.6479 57.1914 55.786 57.1377 70.7728 57.1377C85.7595 57.1377 97.8932 57.1914 97.8932 57.2541Z" fill="#083C35"/>
<path d="M77.6299 2.53031C78.1711 2.53031 78.6099 2.09155 78.6099 1.55031C78.6099 1.00907 78.1711 0.570312 77.6299 0.570312C77.0887 0.570312 76.6499 1.00907 76.6499 1.55031C76.6499 2.09155 77.0887 2.53031 77.6299 2.53031Z" fill="#6FC7BA"/>
<path d="M13.98 86.1099C14.5212 86.1099 14.96 85.6711 14.96 85.1299C14.96 84.5887 14.5212 84.1499 13.98 84.1499C13.4388 84.1499 13 84.5887 13 85.1299C13 85.6711 13.4388 86.1099 13.98 86.1099Z" fill="#6FC7BA"/>
<path d="M28.3999 1.96C28.9412 1.96 29.3799 1.52124 29.3799 0.98C29.3799 0.43876 28.9412 0 28.3999 0C27.8587 0 27.4199 0.43876 27.4199 0.98C27.4199 1.52124 27.8587 1.96 28.3999 1.96Z" fill="#6FC7BA"/>
<path d="M109.98 83.96C110.521 83.96 110.96 83.5212 110.96 82.98C110.96 82.4388 110.521 82 109.98 82C109.439 82 109 82.4388 109 82.98C109 83.5212 109.439 83.96 109.98 83.96Z" fill="#6FC7BA"/>
<path d="M118.16 4V8.31" stroke="#6FC7BA" stroke-linecap="round" stroke-linejoin="round"/>
<path d="M116 6.1499H120.31" stroke="#6FC7BA" stroke-linecap="round" stroke-linejoin="round"/>
<path d="M46.04 13.8599V18.1699" stroke="#6FC7BA" stroke-linecap="round" stroke-linejoin="round"/>
<path d="M43.8901 16.0103H48.1901" stroke="#6FC7BA" stroke-linecap="round" stroke-linejoin="round"/>
<path d="M69 92.5C81.9725 92.5 93.7131 92.7797 102.207 93.2314C106.456 93.4574 109.884 93.7266 112.244 94.0234C113.427 94.1722 114.325 94.3261 114.919 94.4805C114.943 94.4868 114.967 94.4937 114.99 94.5C114.967 94.5063 114.943 94.5132 114.919 94.5195C114.325 94.6739 113.427 94.8278 112.244 94.9766C109.884 95.2734 106.456 95.5426 102.207 95.7686C93.7131 96.2203 81.9725 96.5 69 96.5C56.0275 96.5 44.2869 96.2203 35.793 95.7686C31.5442 95.5426 28.1163 95.2734 25.7559 94.9766C24.5727 94.8278 23.6752 94.6739 23.0811 94.5195C23.0563 94.5131 23.0321 94.5063 23.0088 94.5C23.0321 94.4937 23.0563 94.4869 23.0811 94.4805C23.6752 94.3261 24.5727 94.1722 25.7559 94.0234C28.1163 93.7266 31.5442 93.4574 35.793 93.2314C44.2869 92.7797 56.0275 92.5 69 92.5Z" fill="#14241C" stroke="#14241C"/>
<path opacity="0.23" d="M11.8914 10.8517L8.03815 10.944L6.08364 10.9802C5.43214 10.9802 4.77476 10.9802 4.12032 11H4V10.8517V7.16474V7H4.14967L8.03521 7.01977C9.32942 7.01977 10.6236 7.05931 11.9208 7.07578H12V7.18122C12 7.80725 11.9736 8.42998 11.9618 9.04613L11.8914 10.8517ZM11.8914 10.8517L11.8503 8.99012C11.8357 8.37397 11.8151 7.76771 11.8092 7.16474L11.8914 7.25371C10.5943 7.27348 9.30007 7.30642 8.00587 7.30972L4.12032 7.32949L4.26706 7.16474L4.24945 10.8517L4.12032 10.7068C4.76009 10.7068 5.39692 10.7068 6.03962 10.7068L7.97065 10.743L11.8914 10.8517Z" fill="#EBEBEB"/>
<path opacity="0.23" d="M126.891 65.8517L123.038 65.944L121.084 65.9802C120.432 65.9802 119.775 65.9802 119.12 66H119V65.8517V62.1647V62H119.15L123.035 62.0198C124.329 62.0198 125.624 62.0593 126.921 62.0758H127V62.1812C127 62.8072 126.974 63.43 126.962 64.0461L126.891 65.8517ZM126.891 65.8517L126.85 63.9901C126.836 63.374 126.815 62.7677 126.809 62.1647L126.891 62.2537C125.594 62.2735 124.3 62.3064 123.006 62.3097L119.12 62.3295L119.267 62.1647L119.249 65.8517L119.12 65.7068C119.76 65.7068 120.397 65.7068 121.04 65.7068L122.971 65.743L126.891 65.8517Z" fill="#EBEBEB"/>
<path opacity="0.23" d="M15.9207 14.8517L12.0661 14.944L10.1108 14.9802C9.45908 14.9802 8.80147 14.9802 8.14679 15H8.01468V14.8517L8 11.1647V11H8.14679L12.0338 11.0198C13.3284 11.0198 14.6261 11.0593 15.9207 11.0758H16V11.1647C16 11.7908 15.9765 12.4135 15.9618 13.0297L15.9207 14.8517ZM15.9207 14.8517L15.8796 12.9901C15.8796 12.374 15.8444 11.7677 15.8415 11.1647L15.9207 11.2537C14.6261 11.2735 13.3284 11.3064 12.0338 11.3097L8.14679 11.3295L8.29358 11.1647L8.27596 14.8517L8.14679 14.7068C8.78679 14.7068 9.42679 14.7068 10.0668 14.7068L11.9985 14.743L15.9207 14.8517Z" fill="#EBEBEB"/>
<path opacity="0.23" d="M130.921 69.8517L127.066 69.944L125.111 69.9802C124.459 69.9802 123.801 69.9802 123.147 70H123.015V69.8517L123 66.1647V66H123.147L127.034 66.0198C128.328 66.0198 129.626 66.0593 130.921 66.0758H131V66.1647C131 66.7908 130.977 67.4135 130.962 68.0297L130.921 69.8517ZM130.921 69.8517L130.88 67.9901C130.88 67.374 130.844 66.7677 130.841 66.1647L130.921 66.2537C129.626 66.2735 128.328 66.3064 127.034 66.3097L123.147 66.3295L123.294 66.1647L123.276 69.8517L123.147 69.7068C123.787 69.7068 124.427 69.7068 125.067 69.7068L126.999 69.743L130.921 69.8517Z" fill="#EBEBEB"/>
</svg>
