<svg width="40" height="40" viewBox="0 0 40 40" fill="none" xmlns="http://www.w3.org/2000/svg">
<path fill-rule="evenodd" clip-rule="evenodd" d="M17 10C17 9.44772 17.4477 9 18 9H22C22.5523 9 23 9.44772 23 10C23 10.5523 22.5523 11 22 11H18C17.4477 11 17 10.5523 17 10ZM20 15C16.134 15 13 18.134 13 22C13 25.866 16.134 29 20 29C23.866 29 27 25.866 27 22C27 18.134 23.866 15 20 15ZM11 22C11 17.0294 15.0294 13 20 13C24.9706 13 29 17.0294 29 22C29 26.9706 24.9706 31 20 31C15.0294 31 11 26.9706 11 22ZM23.7071 18.2929C24.0976 18.6834 24.0976 19.3166 23.7071 19.7071L20.7071 22.7071C20.3166 23.0976 19.6834 23.0976 19.2929 22.7071C18.9024 22.3166 18.9024 21.6834 19.2929 21.2929L22.2929 18.2929C22.6834 17.9024 23.3166 17.9024 23.7071 18.2929Z" fill="#D9D9D9"/>
</svg>
