<svg width="40" height="40" viewBox="0 0 40 40" fill="none" xmlns="http://www.w3.org/2000/svg">
<path fill-rule="evenodd" clip-rule="evenodd" d="M10 14C10 12.8954 10.8954 12 12 12H16C17.1046 12 18 12.8954 18 14V18C18 19.1046 17.1046 20 16 20H12C10.8954 20 10 19.1046 10 18V14ZM16 14H12V18H16V14ZM20 14C20 13.4477 20.4477 13 21 13H29C29.5523 13 30 13.4477 30 14C30 14.5523 29.5523 15 29 15H21C20.4477 15 20 14.5523 20 14ZM20 20C20 19.4477 20.4477 19 21 19H29C29.5523 19 30 19.4477 30 20C30 20.5523 29.5523 21 29 21H21C20.4477 21 20 20.5523 20 20ZM17.7071 22.2929C18.0976 22.6834 18.0976 23.3166 17.7071 23.7071L13.7071 27.7071C13.3166 28.0976 12.6834 28.0976 12.2929 27.7071L10.2929 25.7071C9.90237 25.3166 9.90237 24.6834 10.2929 24.2929C10.6834 23.9024 11.3166 23.9024 11.7071 24.2929L13 25.5858L16.2929 22.2929C16.6834 21.9024 17.3166 21.9024 17.7071 22.2929ZM20 26C20 25.4477 20.4477 25 21 25H29C29.5523 25 30 25.4477 30 26C30 26.5523 29.5523 27 29 27H21C20.4477 27 20 26.5523 20 26Z" fill="#D9D9D9"/>
</svg>
