<svg width="40" height="40" viewBox="0 0 40 40" fill="none" xmlns="http://www.w3.org/2000/svg">
<path fill-rule="evenodd" clip-rule="evenodd" d="M10 12C10 10.8954 10.8954 10 12 10H17C18.1046 10 19 10.8954 19 12V19C19 20.1046 18.1046 21 17 21H12C10.8954 21 10 20.1046 10 19V12ZM17 12H12V19H17V12ZM21 12C21 10.8954 21.8954 10 23 10H28C29.1046 10 30 10.8954 30 12V15C30 16.1046 29.1046 17 28 17H23C21.8954 17 21 16.1046 21 15V12ZM28 12H23V15H28V12ZM21 21C21 19.8954 21.8954 19 23 19H28C29.1046 19 30 19.8954 30 21V28C30 29.1046 29.1046 30 28 30H23C21.8954 30 21 29.1046 21 28V21ZM28 21H23V28H28V21ZM10 25C10 23.8954 10.8954 23 12 23H17C18.1046 23 19 23.8954 19 25V28C19 29.1046 18.1046 30 17 30H12C10.8954 30 10 29.1046 10 28V25ZM17 25H12V28H17V25Z" fill="#D9D9D9"/>
</svg>
