<svg width="40" height="40" viewBox="0 0 40 40" fill="none" xmlns="http://www.w3.org/2000/svg">
<path d="M23 28.9995V20.9995C23 20.7343 22.8946 20.4799 22.7071 20.2924C22.5196 20.1048 22.2652 19.9995 22 19.9995H18C17.7348 19.9995 17.4804 20.1048 17.2929 20.2924C17.1054 20.4799 17 20.7343 17 20.9995V28.9995M11 17.9995C10.9999 17.7085 11.0633 17.4211 11.1858 17.1572C11.3082 16.8933 11.4868 16.6593 11.709 16.4715L18.709 10.4725C19.07 10.1674 19.5274 10 20 10C20.4726 10 20.93 10.1674 21.291 10.4725L28.291 16.4715C28.5132 16.6593 28.6918 16.8933 28.8142 17.1572C28.9367 17.4211 29.0001 17.7085 29 17.9995V26.9995C29 27.5299 28.7893 28.0386 28.4142 28.4137C28.0391 28.7888 27.5304 28.9995 27 28.9995H13C12.4696 28.9995 11.9609 28.7888 11.5858 28.4137C11.2107 28.0386 11 27.5299 11 26.9995V17.9995Z" stroke="#D9D9D9" stroke-width="2" stroke-linecap="round" stroke-linejoin="round"/>
</svg>
